{"glyphs":{"0":{"ha":797,"x_min":56,"x_max":740,"o":"m 335 -14 q 132 82 208 -14 q 56 342 56 178 q 106 631 56 496 q 252 850 157 765 q 465 935 347 935 q 666 840 592 935 q 740 579 740 744 q 692 292 740 426 q 549 72 643 157 q 335 -14 454 -14 m 214 382 q 247 172 214 256 q 347 89 281 89 q 474 156 418 89 q 559 325 531 222 q 588 542 588 428 q 554 748 588 664 q 453 832 521 832 q 283 700 351 832 q 214 382 214 568 z "},"1":{"ha":797,"x_min":142,"x_max":592,"o":"m 457 94 q 589 100 544 94 q 592 72 592 83 q 576 19 592 40 q 528 -3 561 -3 q 437 -1 518 -3 q 294 0 356 0 q 144 -1 188 0 q 142 26 142 18 q 224 99 142 99 l 313 99 q 365 490 314 110 q 406 819 400 764 q 247 801 301 813 q 261 882 247 857 q 314 913 275 907 q 511 935 467 935 q 564 893 564 935 q 553 819 564 882 q 524 648 542 756 q 493 443 506 540 q 457 94 460 176 z "},"2":{"ha":797,"x_min":29,"x_max":682,"o":"m 215 713 q 151 774 151 724 q 248 882 151 829 q 446 935 344 935 q 613 879 543 935 q 682 722 682 824 q 672 642 682 683 q 649 569 661 601 q 606 494 636 536 q 557 426 575 451 q 492 356 539 400 q 427 292 446 311 q 351 227 408 274 q 279 168 294 181 q 203 107 264 156 q 296 106 229 106 q 499 113 433 106 q 632 144 564 119 q 642 72 642 106 q 600 17 642 31 q 374 -3 543 -3 q 221 -1 319 -3 q 83 0 122 0 q 29 51 29 0 q 33 83 29 64 q 181 217 92 139 q 322 342 269 294 q 428 450 374 389 q 508 569 483 511 q 533 692 533 628 q 499 793 533 756 q 414 831 465 831 q 310 798 364 831 q 215 713 256 765 z "},"3":{"ha":797,"x_min":56,"x_max":660,"o":"m 468 506 q 589 418 549 474 q 629 297 629 363 q 521 82 629 179 q 253 -15 413 -15 q 105 9 154 -15 q 56 65 56 33 q 78 119 56 97 q 131 144 100 140 q 263 89 167 89 q 416 149 358 89 q 474 286 474 210 q 423 399 474 354 q 271 444 372 444 q 235 489 235 444 q 240 528 235 506 q 436 585 367 528 q 506 719 506 642 q 477 800 506 768 q 399 832 449 832 q 310 804 354 832 q 233 724 265 776 q 186 741 203 724 q 169 783 169 758 q 254 884 169 833 q 436 935 339 935 q 600 881 540 935 q 660 751 660 828 q 468 506 660 604 z "},"4":{"ha":797,"x_min":51,"x_max":713,"o":"m 485 761 q 189 386 338 597 q 278 385 218 385 q 438 389 363 385 q 462 583 446 456 q 485 761 478 711 m 494 918 q 583 936 524 936 q 658 932 636 936 q 639 822 653 899 q 616 694 625 746 q 594 560 607 643 q 572 393 582 476 q 706 417 672 401 q 713 364 713 386 q 709 331 713 344 q 696 308 706 317 q 678 293 686 299 q 653 285 671 288 q 626 282 635 283 q 593 280 617 281 q 560 279 569 279 q 542 79 542 160 q 547 -3 542 32 q 460 -14 518 -14 q 406 -1 421 -14 q 390 39 390 11 q 422 278 390 67 q 75 288 147 278 q 51 332 51 292 q 61 394 51 365 q 281 681 131 499 q 494 918 431 864 z "},"5":{"ha":797,"x_min":61,"x_max":693,"o":"m 579 801 q 342 808 488 801 l 293 600 q 372 606 328 606 q 573 540 506 606 q 640 365 640 475 q 533 99 640 211 q 258 -14 425 -14 q 110 11 160 -14 q 61 68 61 36 q 136 146 61 129 q 179 102 156 115 q 258 89 203 89 q 422 162 358 89 q 486 325 486 235 q 435 454 486 403 q 289 506 383 506 q 185 499 233 506 q 176 547 176 513 q 242 922 176 549 q 529 919 282 919 q 686 931 626 919 q 693 874 693 911 q 579 801 686 801 z "},"6":{"ha":797,"x_min":92,"x_max":682,"o":"m 397 454 q 253 396 328 454 q 243 283 243 349 q 368 90 243 90 q 485 156 442 90 q 529 306 529 221 q 493 415 529 375 q 397 454 457 454 m 340 -14 q 152 67 213 -14 q 92 275 92 147 q 131 504 92 388 q 236 717 169 621 q 406 874 303 813 q 625 935 508 935 q 675 886 675 935 q 656 825 675 854 q 614 831 628 831 q 392 730 483 831 q 268 483 300 629 q 463 557 369 557 q 619 494 557 557 q 682 326 682 431 q 583 92 682 199 q 340 -14 483 -14 z "},"7":{"ha":797,"x_min":65,"x_max":744,"o":"m 65 61 q 343 398 197 176 q 579 803 489 619 q 229 797 410 797 q 140 864 140 797 q 158 931 140 897 q 311 919 225 919 q 740 922 671 919 q 744 885 744 903 q 729 818 744 847 q 678 722 717 788 q 583 563 640 656 q 478 395 525 469 q 365 217 431 321 q 278 82 299 114 q 217 4 240 22 q 171 -14 193 -14 q 65 61 107 -14 z "},"8":{"ha":797,"x_min":79,"x_max":713,"o":"m 326 713 q 443 572 326 625 q 571 742 571 636 q 539 807 571 782 q 460 832 507 832 q 365 799 404 832 q 326 713 326 765 m 535 276 q 499 372 535 333 q 389 446 464 410 q 229 228 229 369 q 265 129 229 169 q 363 89 300 89 q 488 145 440 89 q 535 276 535 201 m 79 206 q 137 388 79 311 q 289 504 194 465 q 182 692 182 575 q 267 866 182 797 q 475 935 353 935 q 651 882 589 935 q 713 750 713 829 q 669 622 713 685 q 544 514 625 560 q 650 419 614 469 q 686 289 686 369 q 596 76 686 167 q 347 -14 506 -14 q 149 50 219 -14 q 79 206 79 114 z "},"9":{"ha":797,"x_min":124,"x_max":713,"o":"m 408 468 q 553 526 478 468 q 563 636 563 574 q 438 831 563 831 q 320 766 364 831 q 276 617 276 701 q 313 508 276 547 q 408 468 349 468 m 465 936 q 653 856 593 936 q 713 647 713 775 q 649 344 713 494 q 460 90 585 194 q 181 -14 335 -14 q 131 36 131 -14 q 150 97 131 68 q 192 92 178 92 q 408 188 319 92 q 536 428 497 283 q 350 364 435 364 q 190 428 256 364 q 124 596 124 492 q 223 830 124 724 q 465 936 322 936 z "}," ":{"ha":264,"x_min":0,"x_max":0,"o":""},"!":{"ha":364,"x_min":65,"x_max":343,"o":"m 149 -14 q 90 10 114 -14 q 65 75 65 35 q 99 161 65 124 q 176 199 132 199 q 234 173 211 199 q 257 108 257 147 q 226 22 257 58 q 149 -14 194 -14 m 343 889 q 319 764 343 851 q 275 558 300 694 q 250 364 250 422 q 256 304 250 331 q 181 285 210 285 q 111 342 111 285 q 129 486 111 351 q 172 894 172 797 q 171 932 172 914 q 264 950 228 950 q 343 889 343 950 z "},"\"":{"ha":554,"x_min":111,"x_max":583,"o":"m 431 981 q 503 1021 439 1021 q 560 1005 536 1021 q 583 957 583 989 q 558 854 583 939 q 513 714 533 769 q 447 660 492 660 q 385 681 426 660 q 417 850 404 729 q 431 981 429 971 m 157 981 q 229 1021 165 1021 q 286 1005 263 1021 q 310 957 310 989 q 285 854 310 939 q 239 714 260 769 q 174 660 218 660 q 111 681 153 660 q 143 850 131 729 q 157 981 156 971 z "},"#":{"ha":797,"x_min":0,"x_max":801,"o":"m 619 638 q 800 646 788 644 q 801 628 801 635 q 781 559 801 586 q 717 532 761 532 q 588 539 664 532 q 542 376 574 497 q 726 388 644 381 q 728 369 728 376 q 708 301 728 328 q 643 274 688 274 q 514 281 590 274 q 483 144 490 193 q 475 54 478 99 q 421 39 444 39 q 378 81 378 39 q 431 285 378 99 l 267 285 q 233 144 239 181 q 225 54 228 99 q 171 39 194 39 q 128 81 128 39 q 181 282 128 96 q 6 253 92 276 q 0 296 0 275 q 29 358 0 339 q 121 378 58 378 l 211 378 q 256 539 228 444 q 81 510 167 533 q 75 553 75 532 q 104 615 75 596 q 196 635 133 635 l 281 635 q 297 704 285 654 q 319 796 310 754 q 333 860 329 838 q 376 865 354 865 q 425 825 425 865 q 369 635 425 811 l 529 635 q 546 704 533 654 q 568 796 558 754 q 582 860 578 838 q 625 865 603 865 q 674 825 674 865 q 619 638 674 810 m 292 375 l 460 375 l 506 543 l 342 543 q 292 375 297 400 z "},"$":{"ha":797,"x_min":56,"x_max":693,"o":"m 283 -14 q 123 26 190 -11 q 56 117 56 64 q 150 221 56 178 q 206 144 164 176 q 297 104 247 113 l 338 397 q 202 474 251 426 q 153 618 153 521 q 219 819 153 739 q 414 924 286 900 q 419 1022 417 956 q 451 1026 440 1026 q 494 996 494 1026 q 488 935 494 992 q 628 899 564 932 q 693 810 693 865 q 579 706 693 728 q 542 786 571 753 q 476 829 513 819 l 438 550 q 497 528 478 536 q 548 501 515 519 q 597 462 581 482 q 626 408 613 442 q 639 333 639 375 q 567 102 639 199 q 360 -10 494 6 q 351 -106 351 -96 l 324 -108 q 274 -78 274 -108 q 283 -14 274 -74 m 411 372 l 374 96 q 469 151 435 103 q 504 264 504 199 q 480 330 504 306 q 411 372 456 354 m 364 576 l 400 825 q 317 772 349 815 q 286 671 286 729 q 364 576 286 608 z "},"%":{"ha":1078,"x_min":92,"x_max":986,"o":"m 321 839 q 248 785 276 839 q 219 664 219 731 q 234 576 219 613 q 278 540 249 540 q 349 596 321 540 q 376 721 376 651 q 363 805 376 771 q 321 839 349 839 m 801 372 q 728 318 757 372 q 700 197 700 264 q 715 110 700 146 q 758 74 729 74 q 829 129 801 74 q 857 253 857 185 q 843 338 857 303 q 801 372 829 372 m 250 -43 q 189 -28 215 -43 q 163 8 163 -14 q 190 63 163 24 q 344 276 217 103 q 644 685 511 503 q 836 963 735 810 q 897 948 871 963 q 924 911 924 933 q 919 894 924 904 q 903 867 915 885 q 878 833 890 849 q 840 781 867 817 q 790 713 813 744 l 444 238 q 250 -43 351 111 m 750 -14 q 619 37 667 -14 q 572 175 572 88 q 638 376 572 294 q 810 457 704 457 q 940 407 893 457 q 986 269 986 357 q 921 68 986 150 q 750 -14 856 -14 m 269 453 q 139 504 186 453 q 92 643 92 556 q 158 844 92 763 q 329 925 224 925 q 459 875 413 925 q 506 736 506 825 q 440 535 506 617 q 269 453 374 453 z "},"&":{"ha":996,"x_min":51,"x_max":1039,"o":"m 656 539 q 767 518 693 539 q 867 497 842 497 q 924 558 924 497 q 906 618 924 590 q 985 660 925 660 q 1026 643 1013 660 q 1039 604 1039 626 q 986 466 1039 539 q 863 393 933 393 q 807 400 839 393 q 755 206 796 289 q 652 76 714 124 q 519 7 590 29 q 365 -15 447 -15 q 137 63 222 -15 q 51 249 51 140 q 108 404 51 331 q 272 521 164 478 q 147 683 147 576 q 235 862 147 786 q 450 938 322 938 q 593 901 533 938 q 653 819 653 864 q 624 765 653 786 q 543 738 594 743 q 432 833 513 833 q 338 797 375 833 q 300 700 300 760 q 334 626 300 661 q 424 592 368 592 q 450 593 440 592 q 453 561 453 568 q 451 540 453 549 q 446 524 450 531 q 439 513 442 517 q 428 506 436 510 q 418 501 421 503 q 406 497 415 500 q 393 494 396 494 q 261 411 311 474 q 211 276 211 349 q 262 144 211 200 q 401 89 313 89 q 601 169 524 89 q 679 432 679 250 q 643 436 660 436 q 604 419 618 436 q 590 375 590 401 q 610 315 590 338 q 533 272 589 272 q 491 289 504 272 q 478 328 478 306 q 530 467 478 396 q 656 539 582 539 z "},"'":{"ha":281,"x_min":111,"x_max":310,"o":"m 157 981 q 229 1021 165 1021 q 286 1005 263 1021 q 310 957 310 989 q 285 854 310 939 q 239 714 260 769 q 174 660 218 660 q 111 681 153 660 q 143 850 131 729 q 157 981 156 971 z "},"(":{"ha":490,"x_min":108,"x_max":533,"o":"m 358 -231 l 357 -242 q 292 -276 326 -276 q 235 -236 267 -276 q 175 -131 203 -196 q 128 31 147 -65 q 108 225 108 126 q 152 511 108 363 q 256 767 196 660 q 375 944 315 874 q 469 1014 435 1014 q 533 974 510 1014 q 328 631 406 843 q 250 208 250 419 q 358 -231 250 -81 z "},")":{"ha":490,"x_min":-43,"x_max":381,"o":"m 129 968 l 131 979 q 196 1014 160 1014 q 253 972 221 1014 q 313 865 285 931 q 361 703 342 799 q 381 510 381 607 q 335 215 381 365 q 228 -40 290 64 q 108 -210 167 -143 q 19 -276 50 -276 q -43 -236 -19 -276 q 163 108 85 -103 q 240 525 240 318 q 211 778 240 658 q 129 968 182 897 z "},"*":{"ha":650,"x_min":131,"x_max":624,"o":"m 447 865 q 575 953 547 932 q 624 868 624 907 q 586 813 624 833 q 450 761 549 793 q 572 633 497 706 q 469 568 526 568 q 423 585 443 568 q 392 622 403 601 q 358 693 381 643 q 249 544 301 622 q 185 581 213 558 q 157 626 157 603 q 167 651 157 638 q 200 687 176 665 q 240 722 224 708 q 290 764 256 735 q 131 825 251 782 q 169 891 142 861 q 229 921 196 921 q 332 871 265 921 q 335 943 335 913 q 332 1014 335 958 q 399 1031 365 1031 q 476 978 476 1031 q 447 865 476 953 z "},"+":{"ha":797,"x_min":78,"x_max":718,"o":"m 389 675 q 447 658 424 675 q 469 615 469 642 q 465 506 469 586 q 460 401 460 426 q 710 415 604 401 q 718 361 718 392 q 698 313 718 333 q 646 293 678 293 q 549 298 619 293 q 458 303 478 303 q 471 39 458 161 q 406 31 431 31 q 349 46 374 31 q 325 92 325 61 q 330 193 325 125 q 335 304 335 261 q 83 292 206 303 q 78 344 78 319 q 95 392 78 371 q 150 413 113 413 q 238 408 181 413 q 336 403 296 403 q 324 665 336 557 q 389 675 353 675 z "},",":{"ha":299,"x_min":-22,"x_max":219,"o":"m 136 167 q 195 141 171 167 q 219 63 219 115 q 157 -119 219 -25 q 10 -214 94 -214 q -22 -176 -22 -214 q -17 -140 -22 -156 l -11 -140 q 62 -106 29 -140 q 94 -32 94 -71 q 42 35 94 24 q 35 71 35 56 q 63 138 35 111 q 136 167 92 164 z "},"-":{"ha":349,"x_min":35,"x_max":342,"o":"m 338 429 q 342 397 342 413 q 322 335 342 360 q 264 310 303 310 q 217 313 249 310 q 163 317 185 317 q 36 301 104 317 q 35 328 35 310 q 113 421 35 421 q 159 418 122 421 q 221 415 196 415 q 338 429 283 415 z "},".":{"ha":310,"x_min":40,"x_max":232,"o":"m 124 -14 q 65 10 89 -14 q 40 75 40 35 q 74 161 40 124 q 151 199 107 199 q 209 173 186 199 q 232 108 232 147 q 201 22 232 58 q 124 -14 169 -14 z "},"/":{"ha":363,"x_min":-21,"x_max":414,"o":"m 356 1031 q 414 1001 414 1031 q 366 823 414 986 q 273 513 318 660 q 224 353 228 365 q 79 -162 114 6 q 32 -169 49 -169 q -21 -137 -21 -169 q 225 704 -21 -121 q 313 1024 288 915 l 356 1031 z "},":":{"ha":339,"x_min":40,"x_max":297,"o":"m 189 460 q 130 484 154 460 q 106 549 106 508 q 139 635 106 597 q 217 672 172 672 q 274 647 251 672 q 297 582 297 621 q 266 496 297 532 q 189 460 235 460 m 124 -14 q 65 10 89 -14 q 40 75 40 35 q 74 161 40 124 q 151 199 107 199 q 209 173 186 199 q 232 108 232 147 q 201 22 232 58 q 124 -14 169 -14 z "},";":{"ha":321,"x_min":-22,"x_max":258,"o":"m 136 167 q 195 141 171 167 q 219 63 219 115 q 157 -119 219 -25 q 10 -214 94 -214 q -22 -176 -22 -214 q -17 -140 -22 -156 l -11 -140 q 62 -106 29 -140 q 94 -32 94 -71 q 42 35 94 24 q 35 71 35 56 q 63 138 35 111 q 136 167 92 164 m 150 460 q 91 484 115 460 q 67 549 67 508 q 100 635 67 597 q 178 672 133 672 q 235 647 213 672 q 258 582 258 621 q 227 496 258 532 q 150 460 196 460 z "},"<":{"ha":797,"x_min":154,"x_max":633,"o":"m 633 606 l 301 350 q 558 81 443 196 q 464 25 522 25 q 415 43 433 25 l 154 351 l 501 646 q 551 664 524 664 q 633 606 607 664 z "},"=":{"ha":797,"x_min":110,"x_max":689,"o":"m 681 279 q 689 225 689 254 q 669 176 689 196 q 617 157 649 157 q 505 163 575 157 q 404 168 435 168 q 117 154 267 168 q 110 208 110 188 q 127 256 110 235 q 182 276 144 276 q 274 272 197 276 q 401 267 350 267 q 681 279 579 267 m 681 551 q 689 497 689 526 q 669 449 689 468 q 617 429 649 429 q 505 435 575 429 q 404 440 435 440 q 117 426 267 440 q 110 481 110 460 q 127 528 110 507 q 182 549 144 549 q 274 544 197 549 q 401 539 350 539 q 681 551 579 539 z "},">":{"ha":797,"x_min":151,"x_max":631,"o":"m 151 83 l 483 339 q 226 608 342 493 q 321 664 263 664 q 369 646 351 664 l 631 338 l 283 43 q 233 25 261 25 q 151 83 178 25 z "},"?":{"ha":531,"x_min":79,"x_max":535,"o":"m 189 -14 q 130 10 154 -14 q 106 75 106 35 q 139 161 106 124 q 217 199 172 199 q 274 173 251 199 q 297 108 297 147 q 266 22 297 58 q 189 -14 235 -14 m 283 310 l 269 300 q 207 285 239 285 q 135 357 135 285 q 169 468 135 418 q 268 581 203 518 q 327 641 307 618 q 369 705 347 664 q 392 785 392 746 q 372 838 392 821 q 319 856 351 856 q 231 825 275 856 q 172 749 188 794 q 79 813 79 767 q 149 911 79 872 q 310 950 219 950 q 469 908 404 950 q 535 779 535 865 q 392 546 535 672 q 334 493 351 511 q 297 438 317 475 q 278 358 278 400 q 283 310 278 333 z "},"@":{"ha":1197,"x_min":118,"x_max":1106,"o":"m 485 75 q 390 114 425 75 q 356 228 356 153 q 451 494 356 372 q 665 615 546 615 q 871 551 792 615 q 778 236 778 319 q 810 185 778 185 q 909 278 861 185 q 957 494 957 371 q 714 719 957 719 q 482 638 590 719 q 315 437 374 556 q 256 203 256 318 q 322 24 256 93 q 522 -44 389 -44 q 722 57 675 -44 q 797 -14 797 33 q 706 -113 797 -75 q 494 -151 615 -151 q 213 -58 307 -151 q 118 183 118 36 q 167 405 118 292 q 299 610 215 518 q 504 760 382 701 q 761 819 626 819 q 1014 737 922 819 q 1106 522 1106 654 q 1049 315 1106 417 q 915 155 993 214 q 772 96 838 96 q 706 123 732 96 q 675 203 681 150 q 587 109 639 143 q 485 75 535 75 m 644 269 q 680 393 656 306 q 706 486 704 481 q 639 521 675 521 q 544 444 585 521 q 503 268 503 367 q 544 181 503 181 q 644 269 604 181 z "},"A":{"ha":751,"x_min":-14,"x_max":729,"o":"m 490 382 q 428 714 447 564 q 285 383 351 519 q 408 381 360 381 q 490 382 464 381 m 374 276 q 236 279 342 276 q 107 -18 119 19 q 13 1 40 -12 q -14 40 -14 14 q 13 119 -14 63 q 100 292 40 175 q 208 519 160 410 q 255 619 218 542 q 320 764 292 697 q 376 911 349 831 q 457 921 417 921 q 513 906 494 921 q 540 847 532 890 q 574 666 542 843 q 631 389 607 489 q 729 14 692 121 q 631 -14 676 -14 q 564 38 575 -14 q 514 279 521 240 q 374 276 400 276 z "},"B":{"ha":729,"x_min":67,"x_max":694,"o":"m 388 828 q 322 822 364 828 q 292 543 300 606 q 340 540 322 540 q 535 707 535 540 q 388 828 535 828 m 340 82 q 461 140 411 82 q 511 292 511 197 q 470 408 511 368 q 368 449 429 449 q 278 442 306 449 q 222 132 260 311 q 274 97 239 113 q 340 82 308 82 m 67 78 q 144 538 106 232 q 178 917 178 794 q 394 935 281 935 q 543 918 479 935 q 651 855 607 901 q 694 736 694 808 q 546 503 694 565 q 643 427 615 469 q 671 315 671 385 q 576 76 671 167 q 349 -14 482 -14 q 67 78 154 -14 z "},"C":{"ha":743,"x_min":64,"x_max":764,"o":"m 588 208 q 678 121 678 175 q 597 27 678 68 q 404 -14 515 -14 q 155 90 246 -14 q 64 367 64 193 q 197 776 64 618 q 542 935 331 935 q 701 895 638 935 q 764 797 764 856 q 731 726 764 754 q 644 692 697 699 q 590 794 632 760 q 497 828 549 828 q 301 699 378 828 q 225 403 225 571 q 274 179 225 265 q 418 93 324 93 q 588 208 522 93 z "},"D":{"ha":831,"x_min":67,"x_max":806,"o":"m 67 74 q 140 499 107 258 q 178 918 174 739 q 385 935 257 935 q 806 561 806 935 q 752 283 806 411 q 588 70 699 154 q 332 -14 478 -14 q 67 74 154 -14 m 325 822 q 228 143 296 471 q 363 93 278 93 q 496 135 439 93 q 583 246 553 178 q 628 385 614 314 q 643 526 643 456 q 578 752 643 676 q 394 828 514 828 q 325 822 369 828 z "},"E":{"ha":653,"x_min":79,"x_max":674,"o":"m 643 783 q 438 813 585 813 q 321 808 388 813 q 290 547 318 742 q 511 553 469 547 q 514 514 514 533 q 456 439 514 443 q 275 438 425 438 q 239 107 239 143 q 329 104 275 104 q 469 114 399 104 q 563 138 540 124 q 581 56 581 88 q 534 6 581 15 q 357 -4 488 -4 q 132 -1 171 -4 q 91 12 103 0 q 79 47 79 24 q 126 425 79 86 q 172 876 172 764 q 171 911 172 901 q 456 924 314 924 q 667 903 644 924 q 674 864 674 888 q 643 783 674 822 z "},"F":{"ha":622,"x_min":79,"x_max":681,"o":"m 321 808 q 290 547 318 742 q 511 553 469 547 q 514 514 514 533 q 456 439 514 443 q 275 438 425 438 q 263 337 271 401 q 250 240 254 272 q 242 166 246 208 q 239 92 239 124 q 244 7 239 44 q 161 -4 196 -4 q 79 68 79 -4 q 126 424 79 79 q 172 876 172 768 q 171 911 172 901 q 463 924 314 924 q 674 903 651 924 q 681 864 681 882 q 650 783 681 821 q 444 813 592 813 q 321 808 388 813 z "},"G":{"ha":786,"x_min":64,"x_max":764,"o":"m 578 440 q 649 444 613 444 q 732 379 732 444 q 725 335 732 371 q 708 237 718 299 q 690 118 697 175 q 598 24 679 61 q 404 -14 517 -14 q 155 90 246 -14 q 64 367 64 193 q 197 776 64 618 q 542 935 331 935 q 701 895 638 935 q 764 797 764 856 q 731 727 764 754 q 644 693 697 700 q 590 794 632 760 q 497 828 549 828 q 301 699 378 828 q 225 403 225 571 q 274 179 225 265 q 417 93 322 93 q 550 149 494 93 q 578 440 569 319 z "},"H":{"ha":851,"x_min":79,"x_max":829,"o":"m 672 921 q 746 925 711 925 q 829 865 829 925 q 823 824 829 858 q 805 715 817 789 q 783 561 793 642 l 747 282 q 731 92 731 160 q 736 7 731 44 q 653 -4 688 -4 q 571 68 571 -4 q 576 112 571 76 q 594 244 581 147 q 621 449 607 340 q 469 446 568 446 q 276 449 376 446 l 256 282 q 239 92 239 160 q 244 7 239 44 q 161 -4 196 -4 q 79 68 79 -4 q 85 125 79 78 q 110 306 92 172 q 149 599 129 440 q 181 921 175 807 q 254 925 221 925 q 338 865 338 925 q 331 823 338 858 q 313 712 325 788 q 290 553 301 636 q 479 550 429 550 q 635 553 540 550 q 672 921 668 810 z "},"I":{"ha":360,"x_min":79,"x_max":338,"o":"m 181 921 q 254 925 221 925 q 338 865 338 925 q 331 824 338 858 q 313 715 325 789 q 292 561 301 642 l 256 282 q 239 92 239 160 q 244 7 239 44 q 161 -4 196 -4 q 79 68 79 -4 q 85 125 79 78 q 110 306 92 172 q 149 599 129 440 q 181 921 175 807 z "},"J":{"ha":454,"x_min":0,"x_max":432,"o":"m 54 -165 q 0 -100 0 -165 q 4 -56 0 -72 q 75 -38 46 -51 q 122 -8 104 -25 q 152 46 140 10 q 170 113 164 82 q 185 206 176 144 l 240 606 q 275 921 267 793 q 347 925 313 925 q 432 868 432 925 q 424 816 432 854 q 404 712 417 778 q 383 585 392 646 l 324 158 q 274 -4 311 65 q 192 -106 236 -74 q 113 -151 147 -137 q 54 -165 78 -165 z "},"K":{"ha":732,"x_min":79,"x_max":732,"o":"m 181 921 q 254 925 221 925 q 338 865 338 925 q 332 824 338 858 q 315 715 326 789 q 292 558 303 640 q 515 768 450 685 q 606 928 581 851 q 719 856 719 926 q 629 713 719 813 q 414 504 539 613 q 628 117 557 186 q 689 99 649 99 q 726 103 718 99 q 732 58 732 81 q 702 3 732 21 q 633 -14 672 -14 q 500 65 560 -14 q 403 222 463 115 q 303 414 343 328 l 269 386 l 256 282 q 239 92 239 160 q 244 7 239 44 q 161 -4 196 -4 q 79 68 79 -4 q 85 125 79 78 q 110 306 92 172 q 149 599 129 440 q 181 921 175 807 z "},"L":{"ha":560,"x_min":79,"x_max":560,"o":"m 542 138 q 560 56 560 88 q 513 6 560 15 q 336 -4 467 -4 q 132 -1 171 -4 q 91 12 103 0 q 79 47 79 24 q 130 460 79 94 q 181 921 181 826 q 260 925 211 925 q 340 879 340 925 q 318 724 340 861 q 270 404 296 586 q 239 107 244 222 q 308 104 275 104 q 449 114 378 104 q 542 138 519 124 z "},"M":{"ha":1078,"x_min":79,"x_max":1056,"o":"m 990 606 l 944 282 q 925 82 925 154 q 931 7 925 54 q 839 -4 897 -4 q 763 49 763 -4 q 775 136 763 54 q 809 367 788 218 q 849 651 831 517 q 558 3 708 375 q 500 -3 539 -3 q 419 33 429 -3 q 355 339 394 119 q 290 663 315 558 q 219 82 219 169 q 225 7 219 54 q 138 -4 192 -4 q 92 8 104 -4 q 79 44 79 19 q 118 321 79 56 l 168 671 q 182 847 182 771 q 178 915 182 883 q 276 926 229 926 q 378 860 353 926 q 413 756 396 811 q 440 665 431 700 q 465 554 450 629 q 485 460 481 479 q 506 347 489 440 q 524 246 522 254 q 838 860 653 576 q 969 926 882 926 q 1056 915 1025 926 q 990 606 1022 832 z "},"N":{"ha":828,"x_min":79,"x_max":806,"o":"m 694 1 q 632 -4 667 -4 q 547 33 563 -4 q 410 372 500 142 q 289 678 319 601 q 267 511 282 628 q 244 331 251 394 q 228 192 236 267 q 221 82 221 118 q 226 7 221 54 q 157 -4 193 -4 q 96 8 113 -4 q 79 49 79 21 q 85 106 79 61 q 101 215 92 150 q 115 321 110 281 q 138 493 125 397 q 156 638 150 589 q 167 741 163 686 q 172 839 172 796 q 167 915 172 883 q 250 926 201 926 q 336 886 308 926 q 460 642 385 814 q 599 293 536 469 l 635 599 q 667 921 661 819 q 726 925 696 925 q 806 878 806 925 q 797 823 806 868 q 777 702 789 778 q 757 561 765 626 q 732 365 749 493 q 707 155 715 236 q 694 1 699 74 z "},"O":{"ha":896,"x_min":64,"x_max":871,"o":"m 403 -14 q 153 88 243 -14 q 64 365 64 190 q 193 772 64 608 q 526 936 322 936 q 780 835 689 936 q 871 558 871 735 q 742 153 871 319 q 403 -14 613 -14 m 507 828 q 301 705 378 828 q 225 403 225 582 q 236 286 225 340 q 269 188 247 232 q 331 117 292 143 q 424 92 371 92 q 580 155 514 92 q 676 315 646 218 q 707 525 707 411 q 658 742 707 656 q 507 828 610 828 z "},"P":{"ha":714,"x_min":79,"x_max":700,"o":"m 371 433 q 497 501 454 433 q 540 676 540 569 q 502 795 540 763 q 393 828 464 828 q 322 822 354 828 q 281 468 313 696 q 371 433 322 433 m 115 321 l 150 599 q 175 918 175 814 q 379 935 272 935 q 700 685 700 935 q 610 423 700 519 q 404 326 519 326 q 268 371 321 326 q 240 85 240 164 q 246 7 240 40 q 157 -4 213 -4 q 79 54 79 -4 q 85 110 79 67 q 101 219 92 154 q 115 321 111 283 z "},"Q":{"ha":889,"x_min":64,"x_max":1003,"o":"m 507 828 q 301 705 378 828 q 225 403 225 582 q 236 286 225 340 q 269 188 247 232 q 331 117 292 143 q 424 92 371 92 q 580 155 514 92 q 676 315 646 218 q 707 525 707 411 q 658 742 707 656 q 507 828 610 828 m 917 -60 q 1003 -151 1003 -85 q 965 -229 1003 -197 q 876 -274 926 -261 q 775 -286 826 -286 q 503 -217 626 -286 q 342 -10 379 -147 q 137 108 210 8 q 64 365 64 207 q 193 772 64 608 q 526 936 322 936 q 780 835 689 936 q 871 558 871 735 q 763 181 871 340 q 472 -8 654 21 q 571 -130 499 -85 q 731 -175 643 -175 q 917 -60 869 -175 z "},"R":{"ha":738,"x_min":79,"x_max":711,"o":"m 522 244 q 540 208 522 244 q 582 135 557 171 q 667 99 607 99 q 706 103 694 99 q 711 58 711 78 q 601 -14 711 -14 q 463 65 507 -14 q 328 376 399 178 q 304 408 304 385 q 328 464 304 436 q 358 458 339 458 q 450 482 407 458 q 540 679 540 533 q 506 798 540 768 q 397 828 472 828 q 322 822 351 828 q 299 581 315 700 l 257 275 q 240 83 240 153 q 246 7 240 40 q 157 -4 213 -4 q 79 54 79 -4 q 85 112 79 68 q 101 219 92 156 q 115 321 111 283 l 150 599 q 175 918 175 801 q 381 935 272 935 q 609 879 518 935 q 700 694 700 824 q 635 488 700 574 q 467 378 569 401 q 522 244 488 318 z "},"S":{"ha":665,"x_min":33,"x_max":665,"o":"m 561 726 q 508 793 549 765 q 422 821 468 821 q 310 779 357 821 q 264 661 264 738 q 296 586 264 613 q 389 538 328 560 q 433 522 397 535 q 481 504 468 510 q 522 484 493 499 q 562 456 550 469 q 590 422 574 443 q 612 375 606 401 q 618 315 618 349 q 526 73 618 160 q 279 -14 433 -14 q 108 22 182 -14 q 33 106 33 57 q 122 204 33 171 q 188 126 138 158 q 292 94 239 94 q 418 141 364 94 q 472 271 472 188 q 439 347 472 322 q 342 392 406 372 q 277 411 297 404 q 219 438 257 418 q 165 480 182 458 q 132 540 147 501 q 117 629 117 579 q 210 851 117 771 q 446 932 304 932 q 596 901 526 932 q 665 817 665 871 q 640 758 665 783 q 561 726 614 732 z "},"T":{"ha":588,"x_min":60,"x_max":675,"o":"m 608 819 q 440 818 572 818 q 401 561 417 683 l 365 282 q 349 92 349 160 q 354 7 349 44 q 268 -4 321 -4 q 188 54 188 -4 q 194 115 188 64 q 220 303 201 165 q 258 599 239 442 q 282 818 275 731 q 61 813 139 818 q 60 838 60 822 q 75 897 60 879 q 126 917 90 915 q 271 918 161 918 l 418 918 q 672 922 625 918 q 675 889 675 906 q 660 838 675 854 q 608 819 644 822 z "},"U":{"ha":846,"x_min":104,"x_max":824,"o":"m 608 403 q 667 921 661 796 q 740 925 706 925 q 803 913 782 925 q 824 865 824 900 q 814 805 824 861 q 783 606 804 749 q 742 282 763 463 q 725 85 725 129 q 731 7 725 40 q 643 -4 678 -4 q 565 68 565 -4 q 581 183 565 76 q 446 38 524 89 q 293 -14 368 -14 q 153 53 203 -14 q 104 218 104 121 q 139 516 104 253 q 181 921 174 779 q 251 925 218 925 q 338 867 338 925 q 332 829 338 863 q 315 729 326 796 q 294 596 304 663 q 253 250 253 299 q 275 149 253 190 q 344 108 297 108 q 490 192 411 108 q 608 403 568 276 z "},"V":{"ha":786,"x_min":106,"x_max":800,"o":"m 151 724 q 114 903 151 825 q 224 936 176 936 q 313 804 313 936 q 281 544 313 733 q 250 265 250 354 q 293 75 250 131 q 459 223 381 104 q 582 488 538 342 q 626 760 626 635 q 603 907 626 846 q 708 936 661 936 q 800 825 800 936 q 777 642 800 749 q 708 422 754 536 q 601 210 661 307 q 456 49 540 113 q 283 -14 372 -14 q 192 1 235 -14 q 106 265 106 93 q 128 482 106 354 q 151 724 151 610 z "},"W":{"ha":1224,"x_min":106,"x_max":1238,"o":"m 151 724 q 114 903 151 825 q 224 936 176 936 q 313 804 313 936 q 281 544 313 733 q 250 265 250 354 q 293 75 250 131 q 452 223 376 104 q 570 488 528 342 q 613 760 613 635 q 589 907 613 846 q 694 936 647 936 q 786 825 786 936 q 697 426 786 656 q 693 319 693 372 q 744 75 693 138 q 903 223 828 104 q 1022 488 979 342 q 1064 760 1064 635 q 1040 907 1064 846 q 1146 936 1099 936 q 1238 825 1238 936 q 1215 642 1238 749 q 1147 422 1192 536 q 1042 210 1101 307 q 901 49 983 113 q 732 -14 818 -14 q 643 1 686 -14 q 564 172 582 65 q 281 -14 432 -14 q 192 1 235 -14 q 106 265 106 93 q 128 482 106 354 q 151 724 151 610 z "},"X":{"ha":740,"x_min":8,"x_max":761,"o":"m 333 483 q 218 724 254 664 q 113 836 182 783 q 203 928 158 906 q 243 936 219 936 q 296 907 268 936 q 351 822 324 878 q 400 717 379 765 q 447 600 421 669 q 629 936 608 865 q 761 842 761 907 q 492 483 761 774 q 519 415 496 472 q 552 336 543 357 q 585 267 561 315 q 626 194 608 219 q 672 138 644 169 q 729 86 700 107 q 639 -6 683 17 q 599 -14 622 -14 q 572 -7 585 -14 q 544 17 558 0 q 519 50 531 33 q 493 94 507 67 q 469 144 479 122 q 444 201 458 165 q 421 258 429 236 q 398 317 413 279 q 376 372 383 354 q 138 -14 172 89 q 8 75 8 14 q 30 136 8 99 q 96 226 51 174 q 172 313 140 278 q 263 410 204 349 q 333 483 321 471 z "},"Y":{"ha":650,"x_min":65,"x_max":724,"o":"m 724 861 q 474 494 724 815 q 424 429 440 451 l 404 282 q 388 92 388 160 q 393 7 388 44 q 310 -4 344 -4 q 228 68 228 -4 q 232 109 228 76 q 249 238 236 142 q 276 435 263 335 q 65 860 147 790 q 178 926 129 926 q 251 879 228 926 q 382 549 329 719 q 589 933 574 853 q 724 861 724 933 z "},"Z":{"ha":735,"x_min":53,"x_max":732,"o":"m 197 926 q 385 908 239 926 q 601 889 531 889 q 700 907 665 889 q 732 826 732 875 q 706 738 732 769 l 328 286 q 214 138 253 194 q 382 120 265 138 q 549 103 499 103 q 676 125 632 103 q 692 71 692 93 q 549 -14 692 -14 q 390 3 510 -14 q 206 21 271 21 q 90 4 138 21 q 53 85 53 53 q 78 165 53 117 q 558 778 160 317 q 409 796 519 781 q 236 811 299 811 q 117 785 172 811 q 100 847 100 819 q 197 926 100 926 z "},"[":{"ha":558,"x_min":113,"x_max":588,"o":"m 410 903 l 258 -168 q 344 -167 300 -167 q 421 -212 421 -167 q 406 -264 421 -233 l 113 -264 l 289 1000 l 583 1000 q 588 968 588 983 q 500 901 588 901 q 410 903 446 901 z "},"\\":{"ha":390,"x_min":46,"x_max":335,"o":"m 174 163 q 46 983 46 961 q 117 1029 46 1029 q 167 1019 138 1029 q 207 701 181 869 q 274 275 240 479 q 335 -118 335 -110 q 268 -167 335 -167 q 214 -158 250 -167 q 174 163 200 -10 z "},"]":{"ha":533,"x_min":-29,"x_max":446,"o":"m 149 -167 l 300 904 q 214 903 258 903 q 138 949 138 903 q 153 1000 138 969 l 446 1000 l 269 -264 l -25 -264 q -29 -232 -29 -247 q 58 -165 -29 -165 q 149 -167 113 -165 z "},"^":{"ha":675,"x_min":28,"x_max":647,"o":"m 588 567 q 338 775 535 567 q 192 633 267 700 q 89 567 118 567 q 28 599 60 567 q 165 769 60 653 q 338 951 269 885 q 508 770 403 888 q 647 599 614 653 q 588 567 613 567 z "},"_":{"ha":743,"x_min":0,"x_max":743,"o":"m 743 -153 q 729 -194 743 -178 q 693 -211 715 -211 q 597 -206 672 -211 q 483 -200 522 -200 l 285 -200 q 4 -211 126 -200 q 0 -169 0 -190 q 13 -129 0 -147 q 50 -111 25 -111 q 138 -116 54 -111 q 282 -121 221 -121 l 479 -121 q 739 -111 656 -121 q 743 -153 743 -124 z "},"`":{"ha":290,"x_min":-76,"x_max":210,"o":"m -39 879 q -76 939 -76 903 q -19 1014 -76 989 q 183 833 43 935 q 210 786 210 815 q 183 728 210 751 q 81 799 165 744 q -39 879 -4 853 z "},"a":{"ha":703,"x_min":38,"x_max":642,"o":"m 428 131 q 215 -14 332 -14 q 87 50 136 -14 q 38 236 38 114 q 134 544 38 415 q 371 672 231 672 q 642 593 524 672 q 574 161 574 282 q 626 72 574 96 q 595 13 621 40 q 525 -14 569 -14 q 453 19 479 -14 q 426 104 426 53 q 428 131 426 122 m 443 286 l 481 522 q 369 581 426 581 q 254 492 300 581 q 208 265 208 404 q 231 141 208 190 q 292 92 254 92 q 368 147 325 92 q 443 286 411 201 z "},"b":{"ha":689,"x_min":57,"x_max":651,"o":"m 57 65 q 131 519 92 214 q 171 882 171 824 q 133 953 171 933 q 167 1019 136 993 q 242 1046 199 1046 q 307 1020 286 1046 q 328 957 328 994 q 279 551 328 867 q 366 640 314 608 q 468 672 418 672 q 601 605 550 672 q 651 413 651 538 q 553 106 651 226 q 326 -14 456 -14 q 57 65 175 -14 m 257 386 q 238 256 251 344 q 219 139 224 168 q 322 76 269 76 q 435 155 389 76 q 481 369 481 233 q 460 508 481 449 q 400 567 440 567 q 327 517 367 567 q 257 386 288 468 z "},"c":{"ha":599,"x_min":38,"x_max":585,"o":"m 471 468 q 369 574 442 574 q 253 484 297 574 q 208 271 208 394 q 240 126 208 174 q 324 78 272 78 q 461 175 407 78 q 528 93 528 149 q 461 18 528 50 q 313 -14 394 -14 q 112 57 186 -14 q 38 250 38 128 q 69 436 38 353 q 154 569 101 519 q 268 646 207 619 q 393 672 329 672 q 524 644 463 672 q 585 560 585 615 q 558 498 585 526 q 471 468 532 469 z "},"d":{"ha":690,"x_min":33,"x_max":675,"o":"m 485 604 q 518 869 518 831 q 481 939 518 922 q 513 1003 483 975 q 589 1032 543 1032 q 654 1006 633 1032 q 675 943 675 981 q 621 533 675 889 q 567 149 567 176 q 618 72 567 94 q 519 -14 600 -14 q 449 21 475 -14 q 422 99 422 56 q 424 131 422 117 q 213 -14 326 -14 q 83 51 133 -14 q 33 236 33 115 q 126 540 33 408 q 339 671 218 671 q 485 604 422 671 m 438 285 l 471 514 q 412 569 432 556 q 368 582 392 582 q 251 494 297 582 q 204 265 204 406 q 226 140 204 189 q 286 92 249 92 q 363 147 319 92 q 438 285 407 201 z "},"e":{"ha":622,"x_min":38,"x_max":583,"o":"m 210 249 q 244 120 211 163 q 324 78 276 78 q 400 104 363 78 q 461 175 438 131 q 528 93 528 149 q 463 18 528 50 q 313 -14 397 -14 q 213 1 260 -14 q 126 45 167 15 q 61 128 85 75 q 38 254 38 182 q 71 438 38 356 q 158 570 104 521 q 273 646 211 619 q 396 672 335 672 q 536 624 489 672 q 583 504 583 576 q 543 370 583 435 q 435 278 503 306 q 256 246 360 246 q 210 249 235 246 m 411 497 q 394 558 411 533 q 349 582 376 582 q 258 509 297 582 q 211 328 219 436 q 256 330 238 328 q 307 342 275 332 q 359 368 339 351 q 395 418 379 385 q 411 497 411 451 z "},"f":{"ha":478,"x_min":-6,"x_max":617,"o":"m 503 801 q 410 892 478 892 q 331 823 360 892 q 296 656 303 754 q 485 663 397 656 q 489 628 489 644 q 422 561 489 564 q 288 558 390 558 q 235 79 254 214 q 220 -7 228 29 q 197 -88 213 -43 q 153 -158 181 -133 q 88 -182 125 -182 q -6 -94 24 -182 q 138 557 100 -64 q 51 550 96 556 q 49 582 49 575 q 129 657 49 657 l 147 657 q 446 992 179 992 q 565 969 514 992 q 617 894 617 946 q 591 832 617 861 q 503 801 565 803 z "},"g":{"ha":672,"x_min":4,"x_max":639,"o":"m 233 139 q 245 115 233 139 q 290 92 257 92 q 366 144 324 92 q 443 286 408 197 q 481 522 463 414 q 368 581 429 581 q 251 488 294 581 q 208 265 208 396 q 233 139 208 186 m 371 674 q 639 594 526 674 q 571 225 606 458 q 560 135 567 194 q 548 37 553 75 q 531 -58 543 -1 q 504 -151 519 -114 q 462 -229 489 -187 q 399 -295 435 -271 q 312 -335 364 -319 q 194 -351 260 -351 q 58 -322 113 -351 q 4 -253 4 -293 q 93 -162 4 -197 q 206 -260 124 -260 q 411 111 392 -260 q 317 16 371 46 q 217 -14 264 -14 q 83 59 128 -14 q 38 236 38 132 q 133 543 38 413 q 371 674 229 674 z "},"h":{"ha":674,"x_min":49,"x_max":613,"o":"m 240 360 q 213 82 213 151 q 217 7 213 42 q 125 -6 163 -6 q 49 43 49 -6 q 108 455 49 92 q 167 868 167 818 q 129 939 167 919 q 163 1004 132 976 q 238 1032 193 1032 q 303 1006 282 1032 q 324 943 324 981 q 304 768 324 910 q 271 549 285 626 q 367 640 313 608 q 471 672 421 672 q 576 624 539 672 q 613 497 613 575 q 588 331 613 472 q 561 150 564 189 q 613 72 561 96 q 577 10 607 33 q 511 -14 547 -14 q 440 18 469 -14 q 411 111 411 50 q 436 309 411 169 q 461 475 461 449 q 406 565 461 565 q 319 508 364 565 q 240 360 274 450 z "},"i":{"ha":322,"x_min":56,"x_max":310,"o":"m 208 738 q 152 760 174 738 q 131 822 131 783 q 161 899 131 867 q 232 931 192 931 q 287 905 264 931 q 310 842 310 879 q 277 768 310 799 q 208 738 244 738 m 121 508 q 83 579 121 561 q 119 647 88 621 q 192 672 151 672 q 253 650 228 672 q 278 585 278 628 q 240 349 278 532 q 201 150 201 167 q 253 72 201 94 q 222 11 247 36 q 156 -14 196 -14 q 80 24 104 -14 q 56 113 56 61 q 88 319 56 178 q 121 508 121 461 z "},"j":{"ha":351,"x_min":-264,"x_max":329,"o":"m 228 738 q 172 760 193 738 q 150 822 150 783 q 181 899 150 867 q 251 931 211 931 q 306 905 283 931 q 329 842 329 879 q 297 768 329 799 q 228 738 264 738 m 211 672 q 275 647 253 672 q 297 585 297 622 q 269 326 297 535 q 218 -14 240 118 q -89 -351 163 -351 q -212 -322 -161 -351 q -264 -253 -264 -293 q -181 -162 -264 -196 q -147 -235 -171 -210 q -92 -261 -124 -261 q -2 -210 -46 -261 q 57 -68 42 -160 q 140 508 140 428 q 103 579 140 558 q 138 646 106 619 q 211 672 171 672 z "},"k":{"ha":661,"x_min":49,"x_max":633,"o":"m 481 672 q 595 631 557 672 q 633 525 633 590 q 570 354 633 436 q 410 260 507 272 q 485 135 453 172 q 565 99 515 99 q 603 103 582 99 q 608 58 608 82 q 507 -14 608 -14 q 388 49 432 -14 q 289 263 343 111 q 267 297 267 276 q 285 347 267 319 q 338 336 314 336 q 427 378 392 336 q 463 479 463 421 q 447 542 463 517 q 401 567 432 567 q 319 510 368 567 q 242 371 271 453 q 213 82 213 172 q 217 7 213 42 q 125 -6 163 -6 q 49 43 49 -6 q 108 455 49 92 q 167 868 167 818 q 129 939 167 919 q 163 1004 132 976 q 238 1032 193 1032 q 303 1006 282 1032 q 324 943 324 981 q 304 767 324 910 q 269 539 285 624 q 481 672 358 672 z "},"l":{"ha":318,"x_min":49,"x_max":303,"o":"m 142 1004 q 157 1018 142 1004 q 217 1032 172 1032 q 282 1006 261 1032 q 303 943 303 981 q 251 544 303 892 q 194 151 199 196 q 246 72 194 93 q 147 -14 229 -14 q 73 24 97 -14 q 49 113 49 61 q 95 490 49 178 q 146 868 142 803 q 108 939 146 919 q 142 1004 111 976 z "},"m":{"ha":1025,"x_min":61,"x_max":950,"o":"m 253 360 q 225 82 225 151 q 229 7 225 42 q 138 -6 175 -6 q 61 43 61 -6 q 92 263 61 61 q 124 504 124 465 q 85 579 124 563 q 122 647 90 622 q 193 672 154 672 q 254 650 229 672 q 279 586 279 628 q 275 536 279 561 q 365 637 313 601 q 469 672 418 672 q 566 633 529 672 q 610 529 603 594 q 700 635 646 597 q 808 672 754 672 q 913 624 876 672 q 950 497 950 575 q 926 331 950 472 q 899 150 901 189 q 950 72 899 96 q 915 10 944 33 q 849 -14 885 -14 q 778 18 807 -14 q 749 111 749 50 q 774 309 749 169 q 799 475 799 449 q 746 565 799 565 q 665 507 710 565 q 594 374 621 449 q 564 82 564 186 q 568 7 564 42 q 476 -6 514 -6 q 400 43 400 -6 q 429 248 400 61 q 458 483 458 435 q 407 565 458 565 q 323 502 369 565 q 253 360 276 439 z "},"n":{"ha":700,"x_min":61,"x_max":625,"o":"m 253 360 q 225 82 225 151 q 229 7 225 42 q 138 -6 175 -6 q 61 43 61 -6 q 92 263 61 61 q 124 504 124 465 q 85 579 124 563 q 122 647 90 622 q 193 672 154 672 q 254 650 229 672 q 279 586 279 628 q 275 536 279 561 q 373 637 315 601 q 483 672 431 672 q 588 624 551 672 q 625 497 625 575 q 601 331 625 472 q 574 150 576 189 q 625 72 574 96 q 590 10 619 33 q 524 -14 560 -14 q 453 18 482 -14 q 424 111 424 50 q 449 309 424 169 q 474 475 474 449 q 418 565 474 565 q 331 508 376 565 q 253 360 286 450 z "},"o":{"ha":696,"x_min":38,"x_max":658,"o":"m 296 -14 q 106 58 174 -14 q 38 257 38 129 q 138 552 38 432 q 393 672 238 672 q 588 599 518 672 q 658 399 658 526 q 555 106 658 225 q 296 -14 451 -14 m 374 581 q 253 490 297 581 q 208 279 208 399 q 238 135 208 192 q 322 78 268 78 q 442 167 397 78 q 486 374 486 256 q 456 522 486 464 q 374 581 426 581 z "},"p":{"ha":701,"x_min":18,"x_max":664,"o":"m 261 386 q 219 139 253 318 q 322 76 267 76 q 442 163 392 76 q 493 399 493 249 q 404 565 493 565 q 261 386 339 565 m 200 672 q 264 648 242 672 q 286 583 286 624 q 283 546 286 568 q 478 672 364 672 q 664 414 664 672 q 570 108 664 229 q 357 -14 476 -14 q 206 47 272 -14 q 171 -190 171 -151 q 204 -275 171 -243 q 100 -351 154 -351 q 18 -226 18 -351 q 69 140 18 -158 q 125 508 121 439 q 88 579 125 558 q 126 647 92 622 q 200 672 161 672 z "},"q":{"ha":686,"x_min":49,"x_max":653,"o":"m 454 288 q 492 522 474 422 q 381 581 435 581 q 265 492 311 581 q 219 265 219 404 q 243 141 219 190 q 304 92 267 92 q 381 148 338 92 q 454 288 425 204 m 653 593 q 572 163 626 476 q 518 -197 518 -151 q 565 -265 518 -246 q 533 -328 558 -304 q 468 -351 507 -351 q 390 -311 413 -351 q 368 -225 368 -271 q 417 101 368 -165 q 226 -14 333 -14 q 97 51 146 -14 q 49 238 49 117 q 144 544 49 417 q 381 672 240 672 q 653 593 535 672 z "},"r":{"ha":499,"x_min":60,"x_max":519,"o":"m 418 536 q 260 418 336 536 q 224 82 224 174 q 228 7 224 42 q 136 -6 174 -6 q 60 43 60 -6 q 91 263 60 61 q 122 504 122 465 q 83 579 122 563 q 121 647 89 622 q 192 672 153 672 q 253 650 228 672 q 278 586 278 628 q 274 538 278 563 q 356 632 307 592 q 457 672 406 672 q 519 606 519 672 q 481 510 519 551 q 418 536 454 536 z "},"s":{"ha":535,"x_min":7,"x_max":501,"o":"m 399 479 q 359 551 385 528 q 303 575 333 575 q 233 544 265 575 q 201 472 201 514 q 230 414 201 435 q 299 382 258 393 q 379 356 339 371 q 448 301 419 340 q 476 200 476 263 q 401 40 476 94 q 204 -14 325 -14 q 65 17 122 -14 q 7 99 7 47 q 90 186 7 169 q 138 113 103 139 q 214 86 172 86 q 308 112 272 86 q 343 172 343 138 q 315 229 343 208 q 246 263 286 250 q 165 292 206 275 q 95 347 124 308 q 67 447 67 386 q 143 617 67 560 q 329 674 219 674 q 446 644 390 674 q 501 561 501 614 q 399 479 501 490 z "},"t":{"ha":478,"x_min":24,"x_max":517,"o":"m 104 657 l 151 657 q 159 721 153 665 q 167 796 165 776 q 244 806 196 806 q 321 758 321 806 q 304 656 321 751 q 513 663 422 656 q 517 629 517 646 q 453 560 517 564 q 289 558 410 558 q 239 185 239 236 q 260 103 239 124 q 325 82 281 82 q 408 124 369 82 q 444 60 444 99 q 282 -14 444 -14 q 147 29 201 -14 q 93 174 93 72 q 101 265 93 204 q 122 419 108 326 q 142 558 136 513 q 26 550 118 558 q 24 579 24 569 q 104 657 24 657 z "},"u":{"ha":696,"x_min":69,"x_max":638,"o":"m 279 586 q 250 369 279 528 q 221 183 221 210 q 276 93 221 93 q 363 151 318 93 q 442 299 408 208 q 457 413 446 333 q 474 546 468 492 q 483 658 481 600 q 561 668 518 668 q 638 619 638 668 q 635 593 638 611 q 625 538 632 575 q 614 469 618 500 q 601 390 614 467 q 579 249 588 313 q 571 154 571 186 q 610 79 571 96 q 572 11 604 36 q 501 -14 540 -14 q 440 8 465 -14 q 415 72 415 31 q 419 122 415 97 q 322 22 379 57 q 211 -14 264 -14 q 106 35 143 -14 q 69 161 69 83 q 96 336 69 186 q 122 519 122 486 q 85 579 122 554 q 117 642 88 613 q 193 672 146 672 q 254 651 229 672 q 279 586 279 631 z "},"v":{"ha":599,"x_min":67,"x_max":596,"o":"m 94 519 q 68 644 94 589 q 178 672 122 672 q 267 581 267 672 q 244 399 267 531 q 222 204 222 267 q 242 92 222 131 q 375 256 318 108 q 432 524 432 404 q 411 647 432 604 q 514 672 454 672 q 576 646 557 672 q 596 581 596 619 q 565 416 596 514 q 481 221 533 318 q 347 55 429 124 q 178 -14 265 -14 q 125 -3 149 -14 q 67 188 67 57 q 81 344 67 251 q 94 519 94 438 z "},"w":{"ha":893,"x_min":67,"x_max":890,"o":"m 94 519 q 68 644 94 589 q 178 672 122 672 q 267 581 267 672 q 244 399 267 531 q 222 204 222 267 q 242 92 222 131 q 365 245 313 107 q 418 496 418 383 q 397 611 418 569 q 500 636 440 636 q 563 611 543 636 q 582 549 582 586 q 528 325 582 460 q 525 257 525 281 q 550 92 525 143 q 674 256 621 108 q 726 524 726 404 q 706 647 726 604 q 808 672 749 672 q 871 646 851 672 q 890 581 890 619 q 860 416 890 514 q 778 221 829 318 q 649 55 728 124 q 485 -14 569 -14 q 433 -3 457 -14 q 392 99 399 32 q 176 -14 289 -14 q 125 -3 149 -14 q 67 188 67 57 q 81 344 67 251 q 94 519 94 438 z "},"x":{"ha":589,"x_min":15,"x_max":553,"o":"m 372 335 q 401 269 382 315 q 431 203 421 222 q 458 158 440 185 q 497 122 476 132 q 543 111 517 111 q 549 71 549 86 q 518 10 549 35 q 444 -14 488 -14 q 265 222 358 -14 q 136 -7 146 64 q 97 -11 115 -11 q 38 4 60 -11 q 15 46 15 19 q 42 115 15 75 q 228 321 93 190 q 212 361 222 335 q 196 400 201 388 q 181 435 190 413 q 165 467 171 457 q 149 494 158 478 q 131 517 139 510 q 111 532 122 524 q 88 544 100 540 q 61 547 75 547 q 56 588 56 572 q 86 648 56 624 q 160 672 117 672 q 255 603 208 672 q 331 443 301 533 q 421 667 410 583 q 471 672 444 672 q 553 608 553 672 q 529 538 553 581 q 485 469 506 496 q 420 390 464 442 q 372 335 376 339 z "},"y":{"ha":601,"x_min":-264,"x_max":581,"o":"m 208 604 q 300 168 272 425 q 422 560 422 401 q 406 646 422 599 q 492 672 454 672 q 581 579 581 672 q 509 303 581 471 q 336 -10 438 136 q 205 -178 261 -117 q 71 -279 149 -239 q -100 -319 -7 -319 q -216 -297 -168 -319 q -264 -237 -264 -275 q -199 -153 -264 -192 q -83 -228 -158 -228 q 188 -14 47 -228 q 124 362 182 161 q 10 610 65 563 q 114 672 63 672 q 208 604 185 672 z "},"z":{"ha":588,"x_min":15,"x_max":581,"o":"m 150 672 q 299 659 183 672 q 469 646 414 646 q 557 658 531 646 q 581 593 581 635 q 557 524 581 551 q 206 115 289 224 q 309 103 235 114 q 419 92 383 92 q 514 108 479 92 q 525 56 525 86 q 414 -14 525 -14 q 289 -1 382 -14 q 144 11 196 11 q 42 -1 83 11 q 15 57 15 35 q 33 114 15 82 q 393 549 93 219 q 295 558 369 550 q 178 567 221 567 q 89 547 131 567 q 78 607 78 581 q 150 672 78 672 z "},"{":{"ha":608,"x_min":88,"x_max":629,"o":"m 442 814 l 403 543 q 364 463 397 504 q 293 399 331 421 q 342 344 322 381 q 363 272 363 308 q 342 111 363 253 q 321 -56 321 -31 q 335 -86 321 -78 q 394 -94 350 -94 q 476 -140 476 -94 q 460 -190 476 -161 q 394 -193 424 -193 q 233 -164 279 -193 q 188 -71 188 -135 q 208 109 188 -33 q 229 263 229 251 q 194 327 229 299 q 88 356 160 356 l 100 443 q 219 477 175 443 q 269 549 263 511 q 311 833 283 619 q 375 955 322 917 q 558 993 428 993 q 626 990 593 993 q 629 961 629 979 q 543 893 629 893 q 465 877 483 893 q 442 814 447 861 z "},"|":{"ha":707,"x_min":289,"x_max":418,"o":"m 300 -12 l 300 783 q 289 1019 300 946 q 353 1024 311 1024 q 417 971 417 1024 q 412 871 417 964 q 407 733 407 778 l 407 -75 q 418 -342 407 -242 q 354 -346 396 -346 q 290 -293 290 -346 q 295 -172 290 -286 q 300 -12 300 -58 z "},"}":{"ha":608,"x_min":-21,"x_max":521,"o":"m 167 -14 l 206 257 q 244 338 211 296 q 315 401 278 379 q 266 456 286 419 q 246 528 246 492 q 267 689 246 547 q 288 856 288 831 q 273 886 288 878 q 214 894 258 894 q 132 940 132 894 q 149 990 132 961 q 214 993 185 993 q 375 964 329 993 q 421 871 421 935 q 400 691 421 833 q 379 538 379 549 q 414 473 379 501 q 521 444 449 444 l 508 357 q 390 323 433 357 q 339 251 346 289 q 297 -33 325 181 q 233 -155 286 -117 q 50 -193 181 -193 q -18 -190 15 -193 q -21 -161 -21 -179 q 65 -93 -21 -93 q 143 -77 125 -93 q 167 -14 161 -61 z "},"~":{"ha":768,"x_min":44,"x_max":724,"o":"m 44 374 q 215 468 44 468 q 396 441 294 468 q 550 414 497 414 q 679 478 614 414 q 724 385 724 422 q 674 312 724 335 q 550 289 624 289 q 397 316 500 289 q 238 343 293 343 q 90 279 154 343 q 44 374 44 339 z "},"¡":{"ha":436,"x_min":79,"x_max":357,"o":"m 274 672 q 333 648 308 672 q 357 583 357 624 q 324 497 357 535 q 246 460 290 460 q 188 485 211 460 q 165 550 165 511 q 197 636 165 600 q 274 672 228 672 m 79 -231 q 103 -106 79 -193 q 147 100 122 -36 q 172 294 172 236 q 167 354 172 328 q 242 374 213 374 q 311 317 311 374 q 293 172 311 307 q 250 -236 250 -139 q 251 -274 250 -256 q 158 -292 194 -292 q 79 -231 79 -292 z "},"¢":{"ha":797,"x_min":88,"x_max":738,"o":"m 251 404 q 351 213 251 258 l 418 693 q 298 585 344 664 q 251 404 251 506 m 447 946 q 481 950 469 950 q 526 919 526 950 q 511 807 526 917 l 521 807 q 681 772 624 807 q 738 690 738 738 q 708 631 738 657 q 625 593 679 604 q 497 707 571 703 l 426 197 q 502 228 460 197 q 582 315 544 260 q 649 281 625 306 q 674 226 674 257 q 607 137 674 175 q 411 97 540 99 l 410 79 q 403 -19 403 -11 l 374 -22 q 324 8 324 -22 q 336 101 324 18 q 155 194 222 119 q 88 383 88 268 q 188 664 88 554 q 433 800 289 774 l 433 803 l 435 806 q 447 946 443 868 z "},"£":{"ha":797,"x_min":29,"x_max":679,"o":"m 319 426 q 317 457 319 435 l 293 457 q 135 451 238 457 q 133 479 133 463 q 186 528 133 528 q 297 531 189 528 q 284 572 294 542 q 269 617 274 601 q 259 656 264 632 q 254 699 254 679 q 333 861 254 785 q 524 938 413 938 q 610 915 574 938 q 647 853 647 893 q 623 803 647 825 q 565 769 599 781 q 485 822 544 822 q 420 801 443 822 q 397 747 397 781 q 408 681 397 714 q 438 602 418 647 q 465 539 458 557 q 644 556 574 546 q 647 521 647 531 q 628 467 647 482 q 561 451 608 451 q 483 453 519 451 q 438 281 482 354 q 265 110 394 207 q 338 97 282 108 q 436 86 393 86 q 532 110 488 86 q 579 190 576 133 l 593 190 q 656 169 633 190 q 679 118 679 149 q 627 33 679 71 q 479 -4 575 -4 q 300 15 397 -4 q 151 35 203 35 q 132 32 140 35 q 68 -4 104 -4 q 40 8 51 -4 q 29 36 29 19 q 56 85 29 63 q 144 118 83 108 q 280 285 240 219 q 319 426 319 351 z "},"¥":{"ha":797,"x_min":96,"x_max":751,"o":"m 344 -4 q 264 56 264 -4 q 269 102 264 67 q 281 188 274 138 q 293 267 289 239 q 100 258 172 267 q 96 285 96 267 q 154 340 96 340 l 306 340 l 315 415 q 121 407 194 415 q 117 435 117 417 q 183 490 117 490 l 307 490 q 269 584 294 519 q 233 676 244 649 q 201 744 221 703 q 161 813 181 786 q 118 863 142 840 q 225 929 168 929 q 288 876 263 929 q 422 542 360 726 q 553 756 486 631 q 629 929 621 881 q 674 935 651 935 q 751 882 751 935 q 506 490 751 825 q 674 500 588 490 q 676 472 676 489 q 610 415 676 415 l 453 415 l 443 340 q 657 349 574 340 q 658 328 658 342 q 593 267 658 267 l 432 267 q 417 90 417 147 q 422 15 417 47 q 344 -4 379 -4 z "},"¦":{"ha":797,"x_min":333,"x_max":463,"o":"m 344 785 q 333 1019 344 946 q 397 1024 356 1024 q 461 971 461 1024 q 456 871 461 964 q 451 733 451 778 l 451 678 q 463 411 451 511 q 399 407 440 407 q 335 460 335 407 q 340 603 335 467 q 344 785 344 739 m 344 -25 l 344 29 q 333 267 344 193 q 397 271 356 271 q 461 218 461 271 q 456 119 461 211 q 451 -19 451 26 l 451 -75 q 463 -342 451 -242 q 399 -346 440 -346 q 335 -293 335 -346 q 340 -181 335 -287 q 344 -25 344 -75 z "},"§":{"ha":608,"x_min":28,"x_max":608,"o":"m 429 292 q 443 360 443 319 q 408 433 443 403 q 315 490 372 463 q 235 535 257 517 q 222 471 222 510 q 252 399 222 428 q 342 341 282 371 q 429 292 403 311 m 97 433 q 185 594 97 536 q 161 700 161 638 q 238 872 161 808 q 424 935 315 935 q 549 906 489 935 q 608 826 608 878 q 586 774 608 794 q 501 743 564 754 q 458 813 493 786 q 383 839 422 839 q 312 811 340 839 q 283 731 283 783 q 313 654 283 686 q 383 600 342 622 q 467 554 425 578 q 539 491 510 531 q 568 396 568 451 q 481 233 568 292 q 506 140 506 192 q 426 -44 506 19 q 235 -108 346 -108 q 90 -76 151 -108 q 28 3 28 -44 q 133 83 28 56 q 177 13 142 39 q 272 -12 213 -12 q 351 18 319 -12 q 382 107 382 49 q 353 183 382 151 q 281 235 324 214 q 197 278 239 256 q 126 339 156 300 q 97 433 97 378 z "},"¨":{"ha":411,"x_min":60,"x_max":479,"o":"m 378 738 q 322 760 343 738 q 300 822 300 783 q 331 899 300 867 q 401 931 361 931 q 456 905 433 931 q 479 842 479 879 q 447 768 479 799 q 378 738 414 738 m 138 738 q 81 760 103 738 q 60 822 60 783 q 90 899 60 867 q 161 931 121 931 q 216 905 193 931 q 239 842 239 879 q 206 768 239 799 q 138 738 174 738 z "},"©":{"ha":1179,"x_min":171,"x_max":1132,"o":"m 1032 444 q 922 742 1032 628 q 653 857 811 857 q 381 743 492 857 q 271 444 271 629 q 381 146 271 260 q 653 32 492 32 q 922 146 811 32 q 1032 444 1032 260 m 1132 444 q 992 94 1132 236 q 653 -47 853 -47 q 310 94 449 -47 q 171 444 171 235 q 310 796 171 656 q 653 936 449 936 q 993 796 854 936 q 1132 444 1132 656 m 861 224 q 804 160 861 188 q 669 133 747 133 q 561 149 613 133 q 463 199 510 165 q 389 297 417 233 q 361 443 361 360 q 453 683 361 601 q 661 765 544 765 q 747 753 703 765 q 826 713 790 742 q 863 644 863 685 q 761 576 863 590 q 718 642 750 619 q 651 664 686 664 q 558 607 596 664 q 521 458 521 550 q 569 288 521 342 q 682 235 617 235 q 804 299 757 235 q 861 224 861 264 z "},"ª":{"ha":472,"x_min":29,"x_max":397,"o":"m 261 893 q 363 870 329 893 q 397 792 397 847 q 385 694 397 772 q 374 572 374 615 q 378 525 374 547 q 319 514 351 514 q 288 519 297 514 q 275 544 278 525 q 174 508 232 508 q 67 601 67 508 q 163 721 67 693 q 290 732 207 732 q 293 772 293 765 q 282 813 293 801 q 242 825 271 825 q 205 810 225 825 q 179 774 185 796 q 104 814 104 779 q 156 873 104 853 q 261 893 208 893 m 375 432 q 381 401 381 417 q 360 357 381 374 q 304 340 339 340 q 244 344 288 340 q 178 347 201 347 l 165 347 q 31 332 106 347 q 29 356 29 340 q 104 424 29 424 q 158 421 115 424 q 228 418 201 418 l 251 418 q 375 432 318 418 m 268 600 l 279 685 q 228 674 246 679 q 192 655 211 669 q 174 617 174 640 q 210 575 174 575 q 268 600 239 575 z "},"«":{"ha":733,"x_min":79,"x_max":713,"o":"m 713 556 q 655 463 713 535 q 536 326 597 390 q 650 108 650 151 q 594 49 650 81 q 385 328 490 146 q 668 606 558 524 q 713 556 713 581 m 407 556 q 349 463 407 535 q 231 326 292 390 q 344 108 344 151 q 289 49 344 81 q 79 328 185 146 q 363 606 253 524 q 407 556 407 581 z "},"¬":{"ha":797,"x_min":94,"x_max":676,"o":"m 674 461 l 676 150 q 660 88 676 106 q 594 69 643 69 q 525 89 561 69 q 547 332 547 164 l 547 369 l 263 369 q 111 340 193 369 q 94 400 94 381 q 175 461 94 461 l 674 461 z "},"®":{"ha":803,"x_min":111,"x_max":746,"o":"m 596 427 q 630 462 596 427 q 664 611 664 497 q 596 795 664 725 q 429 865 528 865 q 261 795 329 865 q 193 611 193 725 q 261 427 193 497 q 429 357 329 357 q 596 427 528 357 m 653 842 q 700 795 653 842 q 746 611 746 749 q 653 381 746 474 q 429 288 561 288 q 203 381 294 288 q 111 611 111 474 q 203 842 111 750 q 429 935 294 935 q 653 842 561 935 m 424 626 q 478 678 478 626 q 459 719 478 703 q 414 735 440 735 l 396 735 l 396 628 q 424 626 401 626 m 583 494 q 589 472 589 483 q 575 448 589 457 q 542 439 561 439 q 486 464 507 439 q 396 582 426 526 l 396 550 q 408 456 396 492 q 357 442 382 442 q 292 483 292 442 q 293 525 292 496 q 294 565 294 554 l 294 658 q 288 778 294 731 q 422 786 392 786 q 578 678 578 786 q 494 581 578 607 q 558 500 504 561 q 583 494 564 494 z "},"¯":{"ha":540,"x_min":128,"x_max":550,"o":"m 550 876 q 535 796 550 826 q 475 765 521 765 q 403 769 454 765 q 319 774 351 774 l 292 774 q 129 763 207 774 q 128 783 128 771 q 201 874 128 874 q 263 869 208 874 q 339 865 318 865 q 550 876 454 865 z "},"°":{"ha":499,"x_min":65,"x_max":490,"o":"m 299 899 q 206 850 240 899 q 171 732 171 801 q 193 656 171 685 q 258 626 215 626 q 350 676 317 626 q 383 794 383 726 q 362 870 383 842 q 299 899 340 899 m 65 722 q 134 908 65 829 q 311 988 203 988 q 441 936 392 988 q 490 804 490 885 q 422 617 490 697 q 246 538 353 538 q 115 589 164 538 q 65 722 65 640 z "},"±":{"ha":797,"x_min":92,"x_max":704,"o":"m 669 131 q 678 76 678 106 q 658 28 678 47 q 606 8 638 8 q 501 14 579 8 q 394 19 424 19 q 99 6 249 19 q 92 60 92 39 q 109 107 92 86 q 164 128 126 128 q 251 123 172 128 q 392 118 331 118 q 669 131 568 118 m 390 675 q 447 658 424 675 q 469 615 469 642 q 465 536 469 589 q 460 456 460 483 q 697 469 592 456 q 704 415 704 446 q 685 367 704 388 q 633 347 665 347 q 544 352 606 347 q 458 357 482 357 q 471 175 458 263 q 406 167 431 167 q 350 182 374 167 q 326 226 326 197 q 331 275 326 240 q 335 358 335 310 q 97 346 222 357 q 92 399 92 374 q 109 446 92 425 q 164 467 126 467 q 243 462 193 467 q 336 457 293 457 q 325 665 336 579 q 390 675 353 675 z "},"²":{"ha":657,"x_min":79,"x_max":571,"o":"m 213 757 q 156 797 156 761 q 231 888 156 840 q 389 935 307 935 q 522 894 472 935 q 571 788 571 854 q 482 592 571 697 q 226 400 393 486 l 297 400 q 543 433 472 400 q 564 374 564 403 q 526 322 564 333 q 319 306 476 306 q 132 308 207 306 q 79 360 79 308 q 86 407 79 382 q 349 592 254 494 q 443 767 443 690 q 415 824 443 803 q 340 846 388 846 q 273 820 310 846 q 213 757 236 794 z "},"³":{"ha":639,"x_min":79,"x_max":547,"o":"m 224 588 l 224 660 l 253 660 q 418 785 418 660 q 350 847 418 847 q 228 772 299 847 q 157 822 157 790 q 228 902 157 868 q 368 936 300 936 q 547 806 547 936 q 426 633 547 682 q 515 503 515 594 q 446 349 515 415 q 251 283 376 283 q 130 306 181 283 q 79 369 79 329 q 156 433 79 407 q 265 372 200 372 q 355 408 321 372 q 389 503 389 443 q 282 590 389 590 q 224 588 261 590 z "},"´":{"ha":314,"x_min":0,"x_max":314,"o":"m 271 849 q 145 788 236 829 q 33 729 54 746 q 0 789 0 763 q 32 833 0 817 q 149 900 71 851 q 268 985 228 949 q 314 914 314 961 q 271 849 314 874 z "},"µ":{"ha":699,"x_min":13,"x_max":640,"o":"m 282 586 q 253 369 282 528 q 224 183 224 210 q 279 93 224 93 q 366 151 321 93 q 444 299 411 208 q 460 413 449 333 q 477 546 471 492 q 486 658 483 600 q 564 668 521 668 q 640 619 640 668 q 638 593 640 611 q 628 538 635 575 q 617 469 621 500 q 603 390 617 467 q 582 249 590 313 q 574 154 574 186 q 613 79 574 96 q 575 11 607 36 q 504 -14 543 -14 q 443 8 468 -14 q 418 72 418 31 q 422 122 418 97 q 251 -14 332 -14 q 188 13 218 -14 q 161 -151 161 -54 q 199 -275 161 -249 q 94 -351 149 -351 q 13 -226 13 -351 q 82 242 13 -168 q 99 340 86 269 q 118 454 111 410 q 125 519 125 499 q 88 579 125 554 q 119 642 90 613 q 196 672 149 672 q 257 651 232 672 q 282 586 282 631 z "},"¶":{"ha":686,"x_min":79,"x_max":729,"o":"m 350 325 q 285 303 347 303 q 135 357 192 303 q 79 503 79 411 q 168 715 79 632 q 376 799 257 799 q 472 796 385 799 q 600 793 560 793 q 726 794 682 793 q 729 763 729 769 q 710 711 729 726 q 646 693 692 696 l 607 692 q 517 160 544 393 q 268 -165 479 -165 q 201 -149 228 -165 q 175 -104 175 -132 q 197 -37 175 -72 q 257 -54 228 -54 q 304 -44 283 -54 q 339 -15 325 -35 q 363 26 353 6 q 378 77 372 46 q 388 131 385 108 q 395 188 392 154 q 401 239 399 222 q 447 464 408 288 q 494 693 485 640 q 419 694 422 693 q 350 325 368 514 z "},"·":{"ha":271,"x_min":46,"x_max":238,"o":"m 129 256 q 70 280 94 256 q 46 344 46 304 q 79 431 46 393 q 157 468 113 468 q 215 442 192 468 q 238 378 238 417 q 206 292 238 328 q 129 256 175 256 z "},"¸":{"ha":517,"x_min":67,"x_max":338,"o":"m 204 44 l 281 33 q 267 6 278 26 q 249 -29 256 -14 q 242 -56 242 -44 q 265 -77 242 -62 q 313 -118 289 -92 q 338 -181 338 -144 q 272 -293 338 -247 q 131 -339 206 -339 q 67 -301 67 -339 q 110 -236 67 -274 q 161 -256 126 -256 q 200 -243 182 -256 q 218 -206 218 -231 q 179 -151 218 -182 q 140 -93 140 -119 q 204 44 140 -37 z "},"¹":{"ha":531,"x_min":92,"x_max":439,"o":"m 439 363 q 367 300 439 300 l 160 300 q 97 296 133 300 q 92 331 92 315 q 185 389 92 389 l 217 389 q 276 836 267 736 q 164 806 226 828 q 153 847 153 826 q 221 917 153 900 q 346 936 307 936 q 390 925 371 936 q 410 889 410 914 q 395 798 410 875 q 363 603 381 721 q 340 383 344 486 q 435 392 354 383 q 439 363 439 376 z "},"º":{"ha":521,"x_min":29,"x_max":433,"o":"m 375 432 q 381 401 381 417 q 360 357 381 374 q 304 340 339 340 q 244 344 288 340 q 178 347 201 347 l 165 347 q 31 332 106 347 q 29 356 29 340 q 104 424 29 424 q 158 421 115 424 q 228 418 201 418 l 251 418 q 375 432 318 418 m 229 578 q 305 621 279 578 q 331 722 331 664 q 313 796 331 768 q 263 824 294 824 q 190 782 215 824 q 165 679 165 740 q 229 578 165 578 m 221 508 q 103 551 146 508 q 61 668 61 594 q 119 828 61 763 q 271 893 176 893 q 390 851 347 893 q 433 735 433 808 q 376 573 433 638 q 221 508 318 508 z "},"»":{"ha":733,"x_min":21,"x_max":654,"o":"m 21 100 q 78 193 21 121 q 197 329 136 265 q 83 547 83 504 q 139 607 83 575 q 349 328 243 510 q 65 50 175 132 q 21 100 21 75 m 326 100 q 384 193 326 121 q 503 329 442 265 q 389 547 389 504 q 444 607 389 575 q 654 328 549 510 q 371 50 481 131 q 326 100 326 75 z "},"¼":{"ha":1322,"x_min":92,"x_max":1231,"o":"m 439 363 q 367 300 439 300 l 160 300 q 97 296 133 300 q 92 331 92 315 q 185 389 92 389 l 217 389 q 276 836 267 736 q 164 806 226 828 q 153 847 153 826 q 221 917 153 900 q 346 936 307 936 q 390 925 371 936 q 410 889 410 914 q 395 798 410 875 q 363 603 381 721 q 340 383 344 486 q 435 392 354 383 q 439 363 439 376 m 283 -74 l 768 733 q 936 1028 879 918 q 1025 988 1025 1028 q 1013 951 1025 972 l 528 146 q 358 -149 401 -64 q 272 -106 272 -146 q 283 -74 272 -90 m 1060 485 q 1019 446 1051 476 q 966 394 988 415 q 913 335 944 372 q 857 265 881 299 l 1031 265 q 1047 392 1036 318 q 1060 485 1057 465 m 1194 632 q 1174 510 1194 628 q 1139 276 1153 393 q 1222 296 1168 278 q 1231 247 1231 269 q 1204 192 1231 206 q 1125 176 1178 178 q 1118 78 1118 114 q 1124 6 1118 35 q 1060 -14 1085 -14 q 993 29 993 -14 q 1015 175 993 57 l 976 175 q 786 185 869 175 q 747 228 747 189 q 756 275 747 247 q 908 460 811 357 q 1068 617 1004 564 q 1143 635 1090 635 q 1194 632 1161 635 z "},"½":{"ha":1343,"x_min":92,"x_max":1257,"o":"m 899 450 q 842 490 842 454 q 917 581 842 533 q 1075 628 993 628 q 1208 588 1158 628 q 1257 481 1257 547 q 1168 285 1257 390 q 913 93 1079 179 l 983 93 q 1229 126 1158 93 q 1250 67 1250 96 q 1213 15 1250 26 q 1006 -1 1163 -1 q 818 1 893 -1 q 765 53 765 1 q 772 100 765 75 q 1035 285 940 188 q 1129 460 1129 383 q 1101 517 1129 496 q 1026 539 1074 539 q 959 513 996 539 q 899 450 922 488 m 439 363 q 367 300 439 300 l 160 300 q 97 296 133 300 q 92 331 92 315 q 185 389 92 389 l 217 389 q 276 836 267 736 q 164 806 226 828 q 153 847 153 826 q 221 917 153 900 q 346 936 307 936 q 390 925 371 936 q 410 889 410 914 q 395 798 410 875 q 363 603 381 721 q 340 383 344 486 q 435 392 354 383 q 439 363 439 376 m 283 -74 l 768 733 q 936 1028 879 918 q 1025 988 1025 1028 q 1013 951 1025 972 l 528 146 q 358 -149 401 -64 q 272 -106 272 -146 q 283 -74 272 -90 z "},"¾":{"ha":1344,"x_min":79,"x_max":1253,"o":"m 224 588 l 224 660 l 253 660 q 418 785 418 660 q 350 847 418 847 q 228 772 299 847 q 157 822 157 790 q 228 902 157 868 q 368 936 300 936 q 547 806 547 936 q 426 633 547 682 q 515 503 515 594 q 446 349 515 415 q 251 283 376 283 q 130 306 181 283 q 79 369 79 329 q 156 433 79 407 q 265 372 200 372 q 355 408 321 372 q 389 503 389 443 q 282 590 389 590 q 224 588 261 590 m 306 -74 l 790 733 q 958 1028 901 918 q 1047 988 1047 1028 q 1035 951 1047 972 l 550 146 q 381 -149 424 -64 q 294 -106 294 -146 q 306 -74 294 -90 m 1082 485 q 1042 446 1074 476 q 988 394 1010 415 q 935 335 967 372 q 879 265 903 299 l 1053 265 q 1069 392 1058 318 q 1082 485 1079 465 m 1217 632 q 1196 510 1217 628 q 1161 276 1175 393 q 1244 296 1190 278 q 1253 247 1253 269 q 1226 192 1253 206 q 1147 176 1200 178 q 1140 78 1140 114 q 1146 6 1140 35 q 1082 -14 1107 -14 q 1015 29 1015 -14 q 1038 175 1015 57 l 999 175 q 808 185 892 175 q 769 228 769 189 q 778 275 769 247 q 930 460 833 357 q 1090 617 1026 564 q 1165 635 1113 635 q 1217 632 1183 635 z "},"¿":{"ha":535,"x_min":0,"x_max":456,"o":"m 346 672 q 405 648 381 672 q 429 583 429 624 q 396 497 429 535 q 318 460 363 460 q 260 485 283 460 q 238 550 238 511 q 269 636 238 600 q 346 672 300 672 m 251 338 l 265 347 q 328 363 296 363 q 400 290 400 363 q 366 179 400 229 q 267 67 332 129 q 208 6 228 29 q 165 -58 188 -17 q 143 -137 143 -99 q 163 -191 143 -174 q 215 -208 183 -208 q 303 -178 260 -208 q 363 -101 347 -147 q 456 -165 456 -119 q 385 -264 456 -225 q 225 -303 315 -303 q 65 -260 131 -303 q 0 -132 0 -218 q 143 101 0 -25 q 201 154 183 136 q 238 210 218 172 q 257 289 257 247 q 251 338 257 314 z "},"À":{"ha":751,"x_min":-14,"x_max":729,"o":"m 279 1143 q 242 1203 242 1167 q 299 1278 242 1253 q 501 1097 361 1199 q 528 1050 528 1079 q 501 992 528 1015 q 399 1063 483 1008 q 279 1143 314 1117 m 490 382 q 428 714 447 564 q 285 383 351 519 q 408 381 360 381 q 490 382 464 381 m 374 276 q 236 279 342 276 q 107 -18 119 19 q 13 1 40 -12 q -14 40 -14 14 q 13 119 -14 63 q 100 292 40 175 q 208 519 160 410 q 255 619 218 542 q 320 764 292 697 q 376 911 349 831 q 457 921 417 921 q 513 906 494 921 q 540 847 532 890 q 574 666 542 843 q 631 389 607 489 q 729 14 692 121 q 631 -14 676 -14 q 564 38 575 -14 q 514 279 521 240 q 374 276 400 276 z "},"Á":{"ha":751,"x_min":-14,"x_max":729,"o":"m 592 1113 q 466 1051 557 1093 q 354 993 375 1010 q 321 1053 321 1026 q 353 1097 321 1081 q 470 1164 392 1115 q 589 1249 549 1213 q 635 1178 635 1225 q 592 1113 635 1138 m 490 382 q 428 714 447 564 q 285 383 351 519 q 408 381 360 381 q 490 382 464 381 m 374 276 q 236 279 342 276 q 107 -18 119 19 q 13 1 40 -12 q -14 40 -14 14 q 13 119 -14 63 q 100 292 40 175 q 208 519 160 410 q 255 619 218 542 q 320 764 292 697 q 376 911 349 831 q 457 921 417 921 q 513 906 494 921 q 540 847 532 890 q 574 666 542 843 q 631 389 607 489 q 729 14 692 121 q 631 -14 676 -14 q 564 38 575 -14 q 514 279 521 240 q 374 276 400 276 z "},"Â":{"ha":751,"x_min":-14,"x_max":729,"o":"m 649 1053 q 589 985 649 1010 q 538 1044 569 1014 q 486 1089 507 1074 l 465 1106 q 292 1001 331 1001 q 250 1038 264 1001 q 485 1239 383 1174 q 649 1053 649 1111 m 490 382 q 428 714 447 564 q 285 383 351 519 q 408 381 360 381 q 490 382 464 381 m 374 276 q 236 279 342 276 q 107 -18 119 19 q 13 1 40 -12 q -14 40 -14 14 q 13 119 -14 63 q 100 292 40 175 q 208 519 160 410 q 255 619 218 542 q 320 764 292 697 q 376 911 349 831 q 457 921 417 921 q 513 906 494 921 q 540 847 532 890 q 574 666 542 843 q 631 389 607 489 q 729 14 692 121 q 631 -14 676 -14 q 564 38 575 -14 q 514 279 521 240 q 374 276 400 276 z "},"Ã":{"ha":751,"x_min":-14,"x_max":729,"o":"m 490 382 q 428 714 447 564 q 285 383 351 519 q 408 381 360 381 q 490 382 464 381 m 374 276 q 236 279 342 276 q 107 -18 119 19 q 13 1 40 -12 q -14 40 -14 14 q 13 119 -14 63 q 100 292 40 175 q 208 519 160 410 q 255 619 218 542 q 320 764 292 697 q 376 911 349 831 q 457 921 417 921 q 513 906 494 921 q 540 847 532 890 q 574 666 542 843 q 631 389 607 489 q 729 14 692 121 q 631 -14 676 -14 q 564 38 575 -14 q 514 279 521 240 q 374 276 400 276 m 683 1125 q 627 1040 683 1079 q 518 1000 571 1000 q 430 1031 478 1000 q 372 1061 382 1061 q 292 997 351 1061 q 253 1050 253 1017 q 310 1126 258 1090 q 418 1163 361 1163 q 499 1132 451 1163 q 563 1101 547 1101 q 642 1164 588 1101 q 683 1125 683 1153 z "},"Ä":{"ha":751,"x_min":-14,"x_max":729,"o":"m 490 382 q 428 714 447 564 q 285 383 351 519 q 408 381 360 381 q 490 382 464 381 m 374 276 q 236 279 342 276 q 107 -18 119 19 q 13 1 40 -12 q -14 40 -14 14 q 13 119 -14 63 q 100 292 40 175 q 208 519 160 410 q 255 619 218 542 q 320 764 292 697 q 376 911 349 831 q 457 921 417 921 q 513 906 494 921 q 540 847 532 890 q 574 666 542 843 q 631 389 607 489 q 729 14 692 121 q 631 -14 676 -14 q 564 38 575 -14 q 514 279 521 240 q 374 276 400 276 m 557 1001 q 501 1024 522 1001 q 479 1086 479 1047 q 510 1163 479 1131 q 581 1194 540 1194 q 635 1169 613 1194 q 658 1106 658 1143 q 626 1032 658 1063 q 557 1001 593 1001 m 317 1001 q 260 1024 282 1001 q 239 1086 239 1047 q 269 1163 239 1131 q 340 1194 300 1194 q 395 1169 372 1194 q 418 1106 418 1143 q 385 1032 418 1063 q 317 1001 353 1001 z "},"Å":{"ha":751,"x_min":-14,"x_max":729,"o":"m 478 1183 q 433 1162 450 1183 q 415 1108 415 1140 q 460 1053 415 1053 q 503 1075 486 1053 q 519 1128 519 1097 q 478 1183 519 1183 m 450 986 q 368 1017 400 986 q 336 1096 336 1049 q 379 1204 336 1158 q 488 1250 422 1250 q 569 1221 539 1250 q 600 1142 600 1192 q 558 1033 600 1079 q 450 986 515 986 m 490 382 q 428 714 447 564 q 285 383 351 519 q 408 381 360 381 q 490 382 464 381 m 374 276 q 236 279 342 276 q 107 -18 119 19 q 13 1 40 -12 q -14 40 -14 14 q 13 119 -14 63 q 100 292 40 175 q 208 519 160 410 q 255 619 218 542 q 320 764 292 697 q 376 911 349 831 q 457 921 417 921 q 513 906 494 921 q 540 847 532 890 q 574 666 542 843 q 631 389 607 489 q 729 14 692 121 q 631 -14 676 -14 q 564 38 575 -14 q 514 279 521 240 q 374 276 400 276 z "},"Æ":{"ha":1025,"x_min":-58,"x_max":1046,"o":"m 432 390 l 486 390 q 532 765 519 626 q 434 599 508 726 q 310 393 360 472 q 432 390 388 390 m 1015 783 q 810 813 957 813 q 686 808 753 813 q 656 547 683 742 q 876 553 835 547 q 879 514 879 533 q 821 439 879 443 q 640 438 790 438 q 604 107 604 143 q 674 104 640 104 q 814 114 743 104 q 907 138 885 124 q 925 56 925 88 q 878 6 925 15 q 701 -4 832 -4 q 497 -1 536 -4 q 456 12 468 0 q 444 47 444 24 q 471 288 444 93 l 376 288 q 229 290 351 288 q 50 -14 75 39 q -27 6 4 -11 q -58 50 -58 22 q -44 89 -58 69 q 183 414 68 244 q 492 908 382 706 q 828 924 638 924 q 1039 903 1017 924 q 1046 864 1046 888 q 1015 783 1046 822 z "},"Ç":{"ha":743,"x_min":64,"x_max":764,"o":"m 588 208 q 678 121 678 175 q 604 31 678 71 q 426 -12 531 -8 q 413 -56 413 -43 q 437 -77 413 -62 q 485 -118 461 -92 q 508 -181 508 -144 q 442 -293 508 -247 q 301 -339 376 -339 q 238 -301 238 -339 q 281 -236 238 -274 q 332 -256 297 -256 q 371 -243 353 -256 q 389 -206 389 -231 q 350 -151 389 -182 q 311 -93 311 -119 q 339 -8 311 -57 q 137 111 210 11 q 64 367 64 211 q 197 776 64 618 q 542 935 331 935 q 701 895 638 935 q 764 797 764 856 q 731 726 764 754 q 644 692 697 699 q 590 794 632 760 q 497 828 549 828 q 301 699 378 828 q 225 403 225 571 q 274 179 225 265 q 418 93 324 93 q 588 208 522 93 z "},"È":{"ha":660,"x_min":79,"x_max":681,"o":"m 274 1143 q 236 1203 236 1167 q 293 1278 236 1253 q 496 1097 356 1199 q 522 1050 522 1079 q 496 992 522 1015 q 393 1063 478 1008 q 274 1143 308 1117 m 650 783 q 444 813 592 813 q 321 808 388 813 q 290 547 318 742 q 511 553 469 547 q 514 514 514 533 q 456 439 514 443 q 275 438 425 438 q 239 107 239 143 q 308 104 275 104 q 449 114 378 104 q 542 138 519 124 q 560 56 560 88 q 513 6 560 15 q 336 -4 467 -4 q 132 -1 171 -4 q 91 12 103 0 q 79 47 79 24 q 126 425 79 86 q 172 876 172 764 q 171 911 172 901 q 463 924 314 924 q 674 903 651 924 q 681 864 681 888 q 650 783 681 822 z "},"É":{"ha":660,"x_min":79,"x_max":681,"o":"m 604 1113 q 478 1051 569 1093 q 367 993 388 1010 q 333 1053 333 1026 q 365 1097 333 1081 q 483 1164 404 1115 q 601 1249 561 1213 q 647 1178 647 1225 q 604 1113 647 1138 m 650 783 q 444 813 592 813 q 321 808 388 813 q 290 547 318 742 q 511 553 469 547 q 514 514 514 533 q 456 439 514 443 q 275 438 425 438 q 239 107 239 143 q 308 104 275 104 q 449 114 378 104 q 542 138 519 124 q 560 56 560 88 q 513 6 560 15 q 336 -4 467 -4 q 132 -1 171 -4 q 91 12 103 0 q 79 47 79 24 q 126 425 79 86 q 172 876 172 764 q 171 911 172 901 q 463 924 314 924 q 674 903 651 924 q 681 864 681 888 q 650 783 681 822 z "},"Ê":{"ha":660,"x_min":79,"x_max":681,"o":"m 635 1053 q 575 985 635 1010 q 524 1044 556 1014 q 472 1089 493 1074 l 451 1106 q 278 1001 317 1001 q 236 1038 250 1001 q 471 1239 369 1174 q 635 1053 635 1111 m 650 783 q 444 813 592 813 q 321 808 388 813 q 290 547 318 742 q 511 553 469 547 q 514 514 514 533 q 456 439 514 443 q 275 438 425 438 q 239 107 239 143 q 308 104 275 104 q 449 114 378 104 q 542 138 519 124 q 560 56 560 88 q 513 6 560 15 q 336 -4 467 -4 q 132 -1 171 -4 q 91 12 103 0 q 79 47 79 24 q 126 425 79 86 q 172 876 172 764 q 171 911 172 901 q 463 924 314 924 q 674 903 651 924 q 681 864 681 888 q 650 783 681 822 z "},"Ë":{"ha":653,"x_min":79,"x_max":674,"o":"m 643 783 q 438 813 585 813 q 321 808 388 813 q 290 547 318 742 q 511 553 469 547 q 514 514 514 533 q 456 439 514 443 q 275 438 425 438 q 239 107 239 143 q 329 104 275 104 q 469 114 399 104 q 563 138 540 124 q 581 56 581 88 q 534 6 581 15 q 357 -4 488 -4 q 132 -1 171 -4 q 91 12 103 0 q 79 47 79 24 q 126 425 79 86 q 172 876 172 764 q 171 911 172 901 q 456 924 314 924 q 667 903 644 924 q 674 864 674 888 q 643 783 674 822 m 568 1001 q 512 1024 533 1001 q 490 1086 490 1047 q 521 1163 490 1131 q 592 1194 551 1194 q 647 1169 624 1194 q 669 1106 669 1143 q 637 1032 669 1063 q 568 1001 604 1001 m 328 1001 q 272 1024 293 1001 q 250 1086 250 1047 q 281 1163 250 1131 q 351 1194 311 1194 q 406 1169 383 1194 q 429 1106 429 1143 q 397 1032 429 1063 q 328 1001 364 1001 z "},"Ì":{"ha":369,"x_min":56,"x_max":342,"o":"m 93 1143 q 56 1203 56 1167 q 113 1278 56 1253 q 315 1097 175 1199 q 342 1050 342 1079 q 315 992 342 1015 q 213 1063 297 1008 q 93 1143 128 1117 m 181 921 q 254 925 221 925 q 338 865 338 925 q 331 824 338 858 q 313 715 325 789 q 292 561 301 642 l 256 282 q 239 92 239 160 q 244 7 239 44 q 161 -4 196 -4 q 79 68 79 -4 q 85 125 79 78 q 110 306 92 172 q 149 599 129 440 q 181 921 175 807 z "},"Í":{"ha":360,"x_min":79,"x_max":463,"o":"m 419 1113 q 294 1051 385 1093 q 182 993 203 1010 q 149 1053 149 1026 q 181 1097 149 1081 q 298 1164 219 1115 q 417 1249 376 1213 q 463 1178 463 1225 q 419 1113 463 1138 m 181 921 q 254 925 221 925 q 338 865 338 925 q 331 824 338 858 q 313 715 325 789 q 292 561 301 642 l 256 282 q 239 92 239 160 q 244 7 239 44 q 161 -4 196 -4 q 79 68 79 -4 q 85 125 79 78 q 110 306 92 172 q 149 599 129 440 q 181 921 175 807 z "},"Î":{"ha":360,"x_min":65,"x_max":464,"o":"m 464 1053 q 404 985 464 1010 q 353 1044 385 1014 q 301 1089 322 1074 l 281 1106 q 107 1001 146 1001 q 65 1038 79 1001 q 300 1239 199 1174 q 464 1053 464 1111 m 181 921 q 254 925 221 925 q 338 865 338 925 q 331 824 338 858 q 313 715 325 789 q 292 561 301 642 l 256 282 q 239 92 239 160 q 244 7 239 44 q 161 -4 196 -4 q 79 68 79 -4 q 85 125 79 78 q 110 306 92 172 q 149 599 129 440 q 181 921 175 807 z "},"Ï":{"ha":360,"x_min":78,"x_max":497,"o":"m 181 921 q 254 925 221 925 q 338 865 338 925 q 331 824 338 858 q 313 715 325 789 q 292 561 301 642 l 256 282 q 239 92 239 160 q 244 7 239 44 q 161 -4 196 -4 q 79 68 79 -4 q 85 125 79 78 q 110 306 92 172 q 149 599 129 440 q 181 921 175 807 m 396 1001 q 340 1024 361 1001 q 318 1086 318 1047 q 349 1163 318 1131 q 419 1194 379 1194 q 474 1169 451 1194 q 497 1106 497 1143 q 465 1032 497 1063 q 396 1001 432 1001 m 156 1001 q 99 1024 121 1001 q 78 1086 78 1047 q 108 1163 78 1131 q 179 1194 139 1194 q 234 1169 211 1194 q 257 1106 257 1143 q 224 1032 257 1063 q 156 1001 192 1001 z "},"Ð":{"ha":864,"x_min":53,"x_max":839,"o":"m 332 438 l 313 438 q 261 143 290 292 q 396 93 311 93 q 529 135 472 93 q 617 246 586 178 q 662 385 647 314 q 676 526 676 456 q 612 752 676 676 q 428 828 547 828 q 358 822 403 828 q 328 547 349 706 q 535 553 492 547 q 538 515 538 528 q 475 439 538 443 q 332 438 446 438 m 100 74 q 165 438 136 238 q 56 432 93 438 q 53 469 53 457 q 115 546 53 540 q 181 547 129 547 q 211 918 207 754 q 418 935 290 935 q 839 561 839 935 q 785 283 839 411 q 622 70 732 154 q 365 -14 511 -14 q 100 74 188 -14 z "},"Ñ":{"ha":828,"x_min":79,"x_max":806,"o":"m 694 1 q 632 -4 667 -4 q 547 33 563 -4 q 410 372 500 142 q 289 678 319 601 q 267 511 282 628 q 244 331 251 394 q 228 192 236 267 q 221 82 221 118 q 226 7 221 54 q 157 -4 193 -4 q 96 8 113 -4 q 79 49 79 21 q 85 106 79 61 q 101 215 92 150 q 115 321 110 281 q 138 493 125 397 q 156 638 150 589 q 167 741 163 686 q 172 839 172 796 q 167 915 172 883 q 250 926 201 926 q 336 886 308 926 q 460 642 385 814 q 599 293 536 469 l 635 599 q 667 921 661 819 q 726 925 696 925 q 806 878 806 925 q 797 823 806 868 q 777 702 789 778 q 757 561 765 626 q 732 365 749 493 q 707 155 715 236 q 694 1 699 74 m 725 1125 q 669 1040 725 1079 q 560 1000 613 1000 q 472 1031 519 1000 q 414 1061 424 1061 q 333 997 393 1061 q 294 1050 294 1017 q 351 1126 300 1090 q 460 1163 403 1163 q 541 1132 493 1163 q 604 1101 589 1101 q 683 1164 629 1101 q 725 1125 725 1153 z "},"Ò":{"ha":896,"x_min":64,"x_max":871,"o":"m 347 1143 q 310 1203 310 1167 q 367 1278 310 1253 q 569 1097 429 1199 q 596 1050 596 1079 q 569 992 596 1015 q 467 1063 551 1008 q 347 1143 382 1117 m 403 -14 q 153 88 243 -14 q 64 365 64 190 q 193 772 64 608 q 526 936 322 936 q 780 835 689 936 q 871 558 871 735 q 742 153 871 319 q 403 -14 613 -14 m 507 828 q 301 705 378 828 q 225 403 225 582 q 236 286 225 340 q 269 188 247 232 q 331 117 292 143 q 424 92 371 92 q 580 155 514 92 q 676 315 646 218 q 707 525 707 411 q 658 742 707 656 q 507 828 610 828 z "},"Ó":{"ha":896,"x_min":64,"x_max":871,"o":"m 697 1113 q 572 1051 663 1093 q 460 993 481 1010 q 426 1053 426 1026 q 458 1097 426 1081 q 576 1164 497 1115 q 694 1249 654 1213 q 740 1178 740 1225 q 697 1113 740 1138 m 403 -14 q 153 88 243 -14 q 64 365 64 190 q 193 772 64 608 q 526 936 322 936 q 780 835 689 936 q 871 558 871 735 q 742 153 871 319 q 403 -14 613 -14 m 507 828 q 301 705 378 828 q 225 403 225 582 q 236 286 225 340 q 269 188 247 232 q 331 117 292 143 q 424 92 371 92 q 580 155 514 92 q 676 315 646 218 q 707 525 707 411 q 658 742 707 656 q 507 828 610 828 z "},"Ô":{"ha":896,"x_min":64,"x_max":871,"o":"m 726 1053 q 667 985 726 1010 q 616 1044 647 1014 q 564 1089 585 1074 l 543 1106 q 369 1001 408 1001 q 328 1038 342 1001 q 563 1239 461 1174 q 726 1053 726 1111 m 403 -14 q 153 88 243 -14 q 64 365 64 190 q 193 772 64 608 q 526 936 322 936 q 780 835 689 936 q 871 558 871 735 q 742 153 871 319 q 403 -14 613 -14 m 507 828 q 301 705 378 828 q 225 403 225 582 q 236 286 225 340 q 269 188 247 232 q 331 117 292 143 q 424 92 371 92 q 580 155 514 92 q 676 315 646 218 q 707 525 707 411 q 658 742 707 656 q 507 828 610 828 z "},"Õ":{"ha":896,"x_min":64,"x_max":871,"o":"m 403 -14 q 153 88 243 -14 q 64 365 64 190 q 193 772 64 608 q 526 936 322 936 q 780 835 689 936 q 871 558 871 735 q 742 153 871 319 q 403 -14 613 -14 m 507 828 q 301 705 378 828 q 225 403 225 582 q 236 286 225 340 q 269 188 247 232 q 331 117 292 143 q 424 92 371 92 q 580 155 514 92 q 676 315 646 218 q 707 525 707 411 q 658 742 707 656 q 507 828 610 828 m 751 1125 q 695 1040 751 1079 q 586 1000 639 1000 q 498 1031 546 1000 q 440 1061 450 1061 q 360 997 419 1061 q 321 1050 321 1017 q 378 1126 326 1090 q 486 1163 429 1163 q 567 1132 519 1163 q 631 1101 615 1101 q 710 1164 656 1101 q 751 1125 751 1153 z "},"Ö":{"ha":896,"x_min":64,"x_max":871,"o":"m 403 -14 q 153 88 243 -14 q 64 365 64 190 q 193 772 64 608 q 526 936 322 936 q 780 835 689 936 q 871 558 871 735 q 742 153 871 319 q 403 -14 613 -14 m 507 828 q 301 705 378 828 q 225 403 225 582 q 236 286 225 340 q 269 188 247 232 q 331 117 292 143 q 424 92 371 92 q 580 155 514 92 q 676 315 646 218 q 707 525 707 411 q 658 742 707 656 q 507 828 610 828 m 661 1001 q 605 1024 626 1001 q 583 1086 583 1047 q 614 1163 583 1131 q 685 1194 644 1194 q 740 1169 717 1194 q 763 1106 763 1143 q 730 1032 763 1063 q 661 1001 697 1001 m 421 1001 q 365 1024 386 1001 q 343 1086 343 1047 q 374 1163 343 1131 q 444 1194 404 1194 q 499 1169 476 1194 q 522 1106 522 1143 q 490 1032 522 1063 q 421 1001 457 1001 z "},"×":{"ha":797,"x_min":93,"x_max":700,"o":"m 599 653 q 655 611 629 636 q 681 565 681 586 q 660 525 681 546 q 568 439 640 507 q 475 353 496 371 q 700 144 617 211 q 607 82 667 82 q 560 97 575 82 q 480 183 546 111 q 394 274 414 254 q 190 51 285 165 q 150 80 164 69 q 123 108 136 90 q 110 143 110 125 q 131 182 110 161 q 317 354 147 200 q 93 564 167 497 q 185 628 133 628 q 233 610 215 628 q 396 433 256 588 q 599 653 532 569 z "},"Ø":{"ha":896,"x_min":64,"x_max":871,"o":"m 707 525 q 686 678 707 608 q 325 121 451 317 q 424 92 368 92 q 580 155 514 92 q 676 315 646 218 q 707 525 707 411 m 507 828 q 301 705 378 828 q 225 403 225 582 q 257 211 225 289 q 626 781 586 717 q 507 828 579 828 m 700 896 l 783 1033 q 846 1017 821 1031 q 871 981 871 1003 q 783 831 871 967 q 871 558 871 731 q 742 153 871 319 q 403 -14 613 -14 q 256 14 322 -14 q 179 -115 196 -85 q 115 -99 139 -112 q 92 -62 92 -85 q 93 -53 92 -58 q 98 -40 94 -47 q 106 -26 101 -33 q 117 -8 110 -19 q 131 14 125 4 q 149 41 138 24 q 169 72 161 58 q 64 365 64 174 q 193 772 64 608 q 526 936 322 936 q 700 896 626 936 z "},"Ù":{"ha":846,"x_min":104,"x_max":824,"o":"m 344 1143 q 307 1203 307 1167 q 364 1278 307 1253 q 567 1097 426 1199 q 593 1050 593 1079 q 567 992 593 1015 q 464 1063 549 1008 q 344 1143 379 1117 m 608 403 q 667 921 661 796 q 740 925 706 925 q 803 913 782 925 q 824 865 824 900 q 814 805 824 861 q 783 606 804 749 q 742 282 763 463 q 725 85 725 129 q 731 7 725 40 q 643 -4 678 -4 q 565 68 565 -4 q 581 183 565 76 q 446 38 524 89 q 293 -14 368 -14 q 153 53 203 -14 q 104 218 104 121 q 139 516 104 253 q 181 921 174 779 q 251 925 218 925 q 338 867 338 925 q 332 829 338 863 q 315 729 326 796 q 294 596 304 663 q 253 250 253 299 q 275 149 253 190 q 344 108 297 108 q 490 192 411 108 q 608 403 568 276 z "},"Ú":{"ha":846,"x_min":104,"x_max":824,"o":"m 694 1113 q 569 1051 660 1093 q 457 993 478 1010 q 424 1053 424 1026 q 456 1097 424 1081 q 573 1164 494 1115 q 692 1249 651 1213 q 738 1178 738 1225 q 694 1113 738 1138 m 608 403 q 667 921 661 796 q 740 925 706 925 q 803 913 782 925 q 824 865 824 900 q 814 805 824 861 q 783 606 804 749 q 742 282 763 463 q 725 85 725 129 q 731 7 725 40 q 643 -4 678 -4 q 565 68 565 -4 q 581 183 565 76 q 446 38 524 89 q 293 -14 368 -14 q 153 53 203 -14 q 104 218 104 121 q 139 516 104 253 q 181 921 174 779 q 251 925 218 925 q 338 867 338 925 q 332 829 338 863 q 315 729 326 796 q 294 596 304 663 q 253 250 253 299 q 275 149 253 190 q 344 108 297 108 q 490 192 411 108 q 608 403 568 276 z "},"Û":{"ha":846,"x_min":104,"x_max":824,"o":"m 719 1053 q 660 985 719 1010 q 609 1044 640 1014 q 557 1089 578 1074 l 536 1106 q 363 1001 401 1001 q 321 1038 335 1001 q 556 1239 454 1174 q 719 1053 719 1111 m 608 403 q 667 921 661 796 q 740 925 706 925 q 803 913 782 925 q 824 865 824 900 q 814 805 824 861 q 783 606 804 749 q 742 282 763 463 q 725 85 725 129 q 731 7 725 40 q 643 -4 678 -4 q 565 68 565 -4 q 581 183 565 76 q 446 38 524 89 q 293 -14 368 -14 q 153 53 203 -14 q 104 218 104 121 q 139 516 104 253 q 181 921 174 779 q 251 925 218 925 q 338 867 338 925 q 332 829 338 863 q 315 729 326 796 q 294 596 304 663 q 253 250 253 299 q 275 149 253 190 q 344 108 297 108 q 490 192 411 108 q 608 403 568 276 z "},"Ü":{"ha":846,"x_min":104,"x_max":824,"o":"m 608 403 q 667 921 661 796 q 740 925 706 925 q 803 913 782 925 q 824 865 824 900 q 814 805 824 861 q 783 606 804 749 q 742 282 763 463 q 725 85 725 129 q 731 7 725 40 q 643 -4 678 -4 q 565 68 565 -4 q 581 183 565 76 q 446 38 524 89 q 293 -14 368 -14 q 153 53 203 -14 q 104 218 104 121 q 139 516 104 253 q 181 921 174 779 q 251 925 218 925 q 338 867 338 925 q 332 829 338 863 q 315 729 326 796 q 294 596 304 663 q 253 250 253 299 q 275 149 253 190 q 344 108 297 108 q 490 192 411 108 q 608 403 568 276 m 651 1001 q 595 1024 617 1001 q 574 1086 574 1047 q 604 1163 574 1131 q 675 1194 635 1194 q 730 1169 707 1194 q 753 1106 753 1143 q 720 1032 753 1063 q 651 1001 688 1001 m 411 1001 q 355 1024 376 1001 q 333 1086 333 1047 q 364 1163 333 1131 q 435 1194 394 1194 q 490 1169 467 1194 q 513 1106 513 1143 q 480 1032 513 1063 q 411 1001 447 1001 z "},"Ý":{"ha":650,"x_min":65,"x_max":724,"o":"m 592 1113 q 466 1051 557 1093 q 354 993 375 1010 q 321 1053 321 1026 q 353 1097 321 1081 q 470 1164 392 1115 q 589 1249 549 1213 q 635 1178 635 1225 q 592 1113 635 1138 m 724 861 q 474 494 724 815 q 424 429 440 451 l 404 282 q 388 92 388 160 q 393 7 388 44 q 310 -4 344 -4 q 228 68 228 -4 q 232 109 228 76 q 249 238 236 142 q 276 435 263 335 q 65 860 147 790 q 178 926 129 926 q 251 879 228 926 q 382 549 329 719 q 589 933 574 853 q 724 861 724 933 z "},"Þ":{"ha":682,"x_min":67,"x_max":668,"o":"m 311 776 q 347 778 322 778 q 668 528 668 778 q 578 266 668 363 q 372 169 488 169 q 236 214 289 169 q 228 83 228 139 q 233 6 228 39 q 144 -6 200 -6 q 67 53 67 -6 q 73 110 67 65 q 89 217 79 154 q 103 319 99 279 l 138 631 q 165 921 165 875 q 244 925 196 925 q 325 879 325 925 q 311 776 325 868 m 294 665 l 249 311 q 339 276 290 276 q 465 344 422 276 q 508 519 508 413 q 470 638 508 606 q 361 671 432 671 q 294 665 326 671 z "},"ß":{"ha":711,"x_min":-39,"x_max":658,"o":"m 361 176 q 385 108 363 132 q 438 85 408 85 q 491 115 469 85 q 513 188 513 144 q 481 271 513 232 q 413 334 450 310 q 344 398 375 358 q 313 483 313 438 q 331 545 313 517 q 376 594 350 574 q 428 637 403 615 q 473 689 454 658 q 492 757 492 719 q 473 815 492 794 q 424 836 454 836 q 322 797 372 836 q 264 671 272 757 q 168 -43 208 121 q 124 -135 156 -94 q 43 -176 92 -176 q -39 -110 -18 -176 q 50 63 11 -96 q 128 626 89 222 q 245 852 142 769 q 456 935 349 935 q 587 900 535 935 q 639 803 639 865 q 619 705 639 747 q 570 638 599 663 q 513 594 542 614 q 465 551 485 574 q 444 503 444 529 q 467 452 444 478 q 520 401 489 426 q 583 349 551 376 q 636 281 614 321 q 658 196 658 242 q 587 50 658 114 q 421 -14 515 -14 q 310 15 357 -14 q 263 86 263 43 q 361 176 263 154 z "},"à":{"ha":717,"x_min":51,"x_max":656,"o":"m 225 879 q 188 939 188 903 q 244 1014 188 989 q 447 833 307 935 q 474 786 474 815 q 447 728 474 751 q 344 799 429 744 q 225 879 260 853 m 442 131 q 229 -14 346 -14 q 101 50 150 -14 q 51 236 51 114 q 148 544 51 415 q 385 672 244 672 q 656 593 538 672 q 588 161 588 282 q 640 72 588 96 q 609 13 635 40 q 539 -14 583 -14 q 467 19 493 -14 q 440 104 440 53 q 442 131 440 122 m 457 286 l 494 522 q 383 581 440 581 q 268 492 314 581 q 222 265 222 404 q 245 141 222 190 q 306 92 268 92 q 382 147 339 92 q 457 286 425 201 z "},"á":{"ha":717,"x_min":51,"x_max":656,"o":"m 578 849 q 452 788 543 829 q 340 729 361 746 q 307 789 307 763 q 339 833 307 817 q 456 900 378 851 q 575 985 535 949 q 621 914 621 961 q 578 849 621 874 m 442 131 q 229 -14 346 -14 q 101 50 150 -14 q 51 236 51 114 q 148 544 51 415 q 385 672 244 672 q 656 593 538 672 q 588 161 588 282 q 640 72 588 96 q 609 13 635 40 q 539 -14 583 -14 q 467 19 493 -14 q 440 104 440 53 q 442 131 440 122 m 457 286 l 494 522 q 383 581 440 581 q 268 492 314 581 q 222 265 222 404 q 245 141 222 190 q 306 92 268 92 q 382 147 339 92 q 457 286 425 201 z "},"â":{"ha":717,"x_min":51,"x_max":656,"o":"m 600 789 q 540 721 600 746 q 490 780 521 750 q 438 825 458 810 l 417 842 q 243 738 282 738 q 201 774 215 738 q 436 975 335 910 q 600 789 600 847 m 442 131 q 229 -14 346 -14 q 101 50 150 -14 q 51 236 51 114 q 148 544 51 415 q 385 672 244 672 q 656 593 538 672 q 588 161 588 282 q 640 72 588 96 q 609 13 635 40 q 539 -14 583 -14 q 467 19 493 -14 q 440 104 440 53 q 442 131 440 122 m 457 286 l 494 522 q 383 581 440 581 q 268 492 314 581 q 222 265 222 404 q 245 141 222 190 q 306 92 268 92 q 382 147 339 92 q 457 286 425 201 z "},"ã":{"ha":717,"x_min":51,"x_max":656,"o":"m 442 131 q 229 -14 346 -14 q 101 50 150 -14 q 51 236 51 114 q 148 544 51 415 q 385 672 244 672 q 656 593 538 672 q 588 161 588 282 q 640 72 588 96 q 609 13 635 40 q 539 -14 583 -14 q 467 19 493 -14 q 440 104 440 53 q 442 131 440 122 m 457 286 l 494 522 q 383 581 440 581 q 268 492 314 581 q 222 265 222 404 q 245 141 222 190 q 306 92 268 92 q 382 147 339 92 q 457 286 425 201 m 626 861 q 570 776 626 815 q 461 736 514 736 q 373 767 421 736 q 315 797 325 797 q 235 733 294 797 q 196 786 196 753 q 253 863 201 826 q 361 899 304 899 q 442 868 394 899 q 506 838 490 838 q 585 900 531 838 q 626 861 626 889 z "},"ä":{"ha":717,"x_min":51,"x_max":656,"o":"m 442 131 q 229 -14 346 -14 q 101 50 150 -14 q 51 236 51 114 q 148 544 51 415 q 385 672 244 672 q 656 593 538 672 q 588 161 588 282 q 640 72 588 96 q 609 13 635 40 q 539 -14 583 -14 q 467 19 493 -14 q 440 104 440 53 q 442 131 440 122 m 457 286 l 494 522 q 383 581 440 581 q 268 492 314 581 q 222 265 222 404 q 245 141 222 190 q 306 92 268 92 q 382 147 339 92 q 457 286 425 201 m 535 738 q 478 760 500 738 q 457 822 457 783 q 488 899 457 867 q 558 931 518 931 q 613 905 590 931 q 636 842 636 879 q 603 768 636 799 q 535 738 571 738 m 294 738 q 238 760 260 738 q 217 822 217 783 q 247 899 217 867 q 318 931 278 931 q 373 905 350 931 q 396 842 396 879 q 363 768 396 799 q 294 738 331 738 z "},"å":{"ha":717,"x_min":51,"x_max":656,"o":"m 451 919 q 406 898 424 919 q 389 844 389 876 q 433 789 389 789 q 476 811 460 789 q 493 864 493 833 q 451 919 493 919 m 424 722 q 342 753 374 722 q 310 832 310 785 q 353 940 310 894 q 461 986 396 986 q 543 957 513 986 q 574 878 574 928 q 531 769 574 815 q 424 722 489 722 m 442 131 q 229 -14 346 -14 q 101 50 150 -14 q 51 236 51 114 q 148 544 51 415 q 385 672 244 672 q 656 593 538 672 q 588 161 588 282 q 640 72 588 96 q 609 13 635 40 q 539 -14 583 -14 q 467 19 493 -14 q 440 104 440 53 q 442 131 440 122 m 457 286 l 494 522 q 383 581 440 581 q 268 492 314 581 q 222 265 222 404 q 245 141 222 190 q 306 92 268 92 q 382 147 339 92 q 457 286 425 201 z "},"æ":{"ha":1001,"x_min":51,"x_max":963,"o":"m 790 497 q 773 558 790 533 q 728 582 756 582 q 638 509 676 582 q 590 328 599 436 q 635 330 617 328 q 686 342 654 332 q 738 368 718 351 q 774 418 758 385 q 790 497 790 451 m 417 254 q 494 522 417 408 q 383 581 440 581 q 268 492 314 581 q 222 265 222 404 q 245 141 222 190 q 306 92 268 92 q 360 122 329 92 q 419 204 392 153 q 417 254 417 235 m 589 249 q 623 120 590 163 q 703 78 656 78 q 779 104 742 78 q 840 175 817 131 q 907 93 907 149 q 842 18 907 50 q 692 -14 776 -14 q 540 21 608 -14 q 440 129 472 56 q 229 -14 344 -14 q 101 50 150 -14 q 51 236 51 114 q 148 544 51 415 q 385 672 244 672 q 604 608 521 672 q 775 672 674 672 q 915 624 868 672 q 963 504 963 576 q 922 370 963 435 q 814 278 882 306 q 635 246 739 246 q 589 249 614 246 z "},"ç":{"ha":599,"x_min":38,"x_max":585,"o":"m 471 468 q 369 574 442 574 q 253 484 297 574 q 208 271 208 394 q 240 126 208 174 q 324 78 272 78 q 461 175 407 78 q 528 93 528 149 q 466 20 528 51 q 326 -14 404 -11 q 313 -56 313 -39 q 337 -77 313 -62 q 385 -118 361 -92 q 408 -181 408 -144 q 342 -293 408 -247 q 201 -339 276 -339 q 138 -301 138 -339 q 181 -236 138 -274 q 232 -256 197 -256 q 271 -243 253 -256 q 289 -206 289 -231 q 250 -151 289 -182 q 211 -93 211 -119 q 240 -7 211 -58 q 92 80 146 13 q 38 250 38 147 q 69 436 38 353 q 154 569 101 519 q 268 646 207 619 q 393 672 329 672 q 524 644 463 672 q 585 560 585 615 q 558 498 585 526 q 471 468 532 469 z "},"è":{"ha":622,"x_min":38,"x_max":583,"o":"m 182 879 q 144 939 144 903 q 201 1014 144 989 q 404 833 264 935 q 431 786 431 815 q 404 728 431 751 q 301 799 386 744 q 182 879 217 853 m 210 249 q 244 120 211 163 q 324 78 276 78 q 400 104 363 78 q 461 175 438 131 q 528 93 528 149 q 463 18 528 50 q 313 -14 397 -14 q 213 1 260 -14 q 126 45 167 15 q 61 128 85 75 q 38 254 38 182 q 71 438 38 356 q 158 570 104 521 q 273 646 211 619 q 396 672 335 672 q 536 624 489 672 q 583 504 583 576 q 543 370 583 435 q 435 278 503 306 q 256 246 360 246 q 210 249 235 246 m 411 497 q 394 558 411 533 q 349 582 376 582 q 258 509 297 582 q 211 328 219 436 q 256 330 238 328 q 307 342 275 332 q 359 368 339 351 q 395 418 379 385 q 411 497 411 451 z "},"é":{"ha":622,"x_min":38,"x_max":583,"o":"m 535 849 q 409 788 500 829 q 297 729 318 746 q 264 789 264 763 q 296 833 264 817 q 413 900 335 851 q 532 985 492 949 q 578 914 578 961 q 535 849 578 874 m 210 249 q 244 120 211 163 q 324 78 276 78 q 400 104 363 78 q 461 175 438 131 q 528 93 528 149 q 463 18 528 50 q 313 -14 397 -14 q 213 1 260 -14 q 126 45 167 15 q 61 128 85 75 q 38 254 38 182 q 71 438 38 356 q 158 570 104 521 q 273 646 211 619 q 396 672 335 672 q 536 624 489 672 q 583 504 583 576 q 543 370 583 435 q 435 278 503 306 q 256 246 360 246 q 210 249 235 246 m 411 497 q 394 558 411 533 q 349 582 376 582 q 258 509 297 582 q 211 328 219 436 q 256 330 238 328 q 307 342 275 332 q 359 368 339 351 q 395 418 379 385 q 411 497 411 451 z "},"ê":{"ha":622,"x_min":38,"x_max":583,"o":"m 564 789 q 504 721 564 746 q 453 780 485 750 q 401 825 422 810 l 381 842 q 207 738 246 738 q 165 774 179 738 q 400 975 299 910 q 564 789 564 847 m 210 249 q 244 120 211 163 q 324 78 276 78 q 400 104 363 78 q 461 175 438 131 q 528 93 528 149 q 463 18 528 50 q 313 -14 397 -14 q 213 1 260 -14 q 126 45 167 15 q 61 128 85 75 q 38 254 38 182 q 71 438 38 356 q 158 570 104 521 q 273 646 211 619 q 396 672 335 672 q 536 624 489 672 q 583 504 583 576 q 543 370 583 435 q 435 278 503 306 q 256 246 360 246 q 210 249 235 246 m 411 497 q 394 558 411 533 q 349 582 376 582 q 258 509 297 582 q 211 328 219 436 q 256 330 238 328 q 307 342 275 332 q 359 368 339 351 q 395 418 379 385 q 411 497 411 451 z "},"ë":{"ha":633,"x_min":38,"x_max":594,"o":"m 210 249 q 244 120 211 163 q 324 78 276 78 q 400 104 363 78 q 461 175 438 131 q 528 93 528 149 q 463 18 528 50 q 313 -14 397 -14 q 213 1 260 -14 q 126 45 167 15 q 61 128 85 75 q 38 254 38 182 q 71 438 38 356 q 158 570 104 521 q 273 646 211 619 q 396 672 335 672 q 536 624 489 672 q 583 504 583 576 q 543 370 583 435 q 435 278 503 306 q 256 246 360 246 q 210 249 235 246 m 411 497 q 394 558 411 533 q 349 582 376 582 q 258 509 297 582 q 211 328 219 436 q 256 330 238 328 q 307 342 275 332 q 359 368 339 351 q 395 418 379 385 q 411 497 411 451 m 493 738 q 437 760 458 738 q 415 822 415 783 q 446 899 415 867 q 517 931 476 931 q 572 905 549 931 q 594 842 594 879 q 562 768 594 799 q 493 738 529 738 m 253 738 q 197 760 218 738 q 175 822 175 783 q 206 899 175 867 q 276 931 236 931 q 331 905 308 931 q 354 842 354 879 q 322 768 354 799 q 253 738 289 738 z "},"ì":{"ha":325,"x_min":0,"x_max":286,"o":"m 38 879 q 0 939 0 903 q 57 1014 0 989 q 260 833 119 935 q 286 786 286 815 q 260 728 286 751 q 157 799 242 744 q 38 879 72 853 m 117 508 q 79 579 117 561 q 115 647 83 621 q 188 672 147 672 q 249 650 224 672 q 274 585 274 628 q 243 349 274 532 q 213 150 213 167 q 264 72 213 94 q 233 11 258 36 q 167 -14 207 -14 q 91 24 115 -14 q 67 113 67 61 q 92 319 67 176 q 117 508 117 461 z "},"í":{"ha":325,"x_min":50,"x_max":364,"o":"m 321 849 q 195 788 286 829 q 83 729 104 746 q 50 789 50 763 q 82 833 50 817 q 199 900 121 851 q 318 985 278 949 q 364 914 364 961 q 321 849 364 874 m 117 508 q 79 579 117 561 q 115 647 83 621 q 188 672 147 672 q 249 650 224 672 q 274 585 274 628 q 243 349 274 532 q 213 150 213 167 q 264 72 213 94 q 233 11 258 36 q 167 -14 207 -14 q 91 24 115 -14 q 67 113 67 61 q 92 319 67 176 q 117 508 117 461 z "},"î":{"ha":325,"x_min":-18,"x_max":381,"o":"m 381 789 q 321 721 381 746 q 270 780 301 750 q 218 825 239 810 l 197 842 q 24 738 63 738 q -18 774 -4 738 q 217 975 115 910 q 381 789 381 847 m 117 508 q 79 579 117 561 q 115 647 83 621 q 188 672 147 672 q 249 650 224 672 q 274 585 274 628 q 243 349 274 532 q 213 150 213 167 q 264 72 213 94 q 233 11 258 36 q 167 -14 207 -14 q 91 24 115 -14 q 67 113 67 61 q 92 319 67 176 q 117 508 117 461 z "},"ï":{"ha":322,"x_min":-4,"x_max":415,"o":"m 121 508 q 83 579 121 561 q 119 647 88 621 q 192 672 151 672 q 253 650 228 672 q 278 585 278 628 q 240 349 278 532 q 201 150 201 167 q 253 72 201 94 q 222 11 247 36 q 156 -14 196 -14 q 80 24 104 -14 q 56 113 56 61 q 88 319 56 178 q 121 508 121 461 m 314 738 q 258 760 279 738 q 236 822 236 783 q 267 899 236 867 q 338 931 297 931 q 392 905 369 931 q 415 842 415 879 q 383 768 415 799 q 314 738 350 738 m 74 738 q 17 760 39 738 q -4 822 -4 783 q 26 899 -4 867 q 97 931 57 931 q 152 905 129 931 q 175 842 175 879 q 142 768 175 799 q 74 738 110 738 z "},"ð":{"ha":768,"x_min":47,"x_max":674,"o":"m 385 574 q 253 491 301 574 q 204 293 204 408 q 237 144 204 203 q 329 86 269 86 q 461 172 414 86 q 508 375 508 257 q 476 518 508 463 q 385 574 443 574 m 621 931 q 573 899 608 922 q 521 863 538 875 q 639 704 604 790 q 674 499 674 618 q 653 314 674 401 q 592 151 633 226 q 477 31 550 75 q 307 -14 404 -14 q 117 60 188 -14 q 47 263 47 135 q 149 560 47 447 q 378 672 250 672 q 445 662 417 672 q 510 617 474 651 q 424 794 486 731 l 304 710 q 254 765 254 731 q 281 817 254 794 q 338 854 307 833 q 211 896 286 882 q 207 926 207 908 q 249 969 207 969 q 435 918 328 969 q 604 1040 517 972 q 647 975 647 1010 q 621 931 647 951 z "},"ñ":{"ha":700,"x_min":61,"x_max":625,"o":"m 253 360 q 225 82 225 151 q 229 7 225 42 q 138 -6 175 -6 q 61 43 61 -6 q 92 263 61 61 q 124 504 124 465 q 85 579 124 563 q 122 647 90 622 q 193 672 154 672 q 254 650 229 672 q 279 586 279 628 q 275 536 279 561 q 373 637 315 601 q 483 672 431 672 q 588 624 551 672 q 625 497 625 575 q 601 331 625 472 q 574 150 576 189 q 625 72 574 96 q 590 10 619 33 q 524 -14 560 -14 q 453 18 482 -14 q 424 111 424 50 q 449 309 424 169 q 474 475 474 449 q 418 565 474 565 q 331 508 376 565 q 253 360 286 450 m 614 861 q 558 776 614 815 q 449 736 501 736 q 360 767 408 736 q 303 797 313 797 q 222 733 282 797 q 183 786 183 753 q 240 863 189 826 q 349 899 292 899 q 430 868 382 899 q 493 838 478 838 q 572 900 518 838 q 614 861 614 889 z "},"ò":{"ha":696,"x_min":38,"x_max":658,"o":"m 221 879 q 183 939 183 903 q 240 1014 183 989 q 443 833 303 935 q 469 786 469 815 q 443 728 469 751 q 340 799 425 744 q 221 879 256 853 m 296 -14 q 106 58 174 -14 q 38 257 38 129 q 138 552 38 432 q 393 672 238 672 q 588 599 518 672 q 658 399 658 526 q 555 106 658 225 q 296 -14 451 -14 m 374 581 q 253 490 297 581 q 208 279 208 399 q 238 135 208 192 q 322 78 268 78 q 442 167 397 78 q 486 374 486 256 q 456 522 486 464 q 374 581 426 581 z "},"ó":{"ha":696,"x_min":38,"x_max":658,"o":"m 572 849 q 447 788 538 829 q 335 729 356 746 q 301 789 301 763 q 333 833 301 817 q 451 900 372 851 q 569 985 529 949 q 615 914 615 961 q 572 849 615 874 m 296 -14 q 106 58 174 -14 q 38 257 38 129 q 138 552 38 432 q 393 672 238 672 q 588 599 518 672 q 658 399 658 526 q 555 106 658 225 q 296 -14 451 -14 m 374 581 q 253 490 297 581 q 208 279 208 399 q 238 135 208 192 q 322 78 268 78 q 442 167 397 78 q 486 374 486 256 q 456 522 486 464 q 374 581 426 581 z "},"ô":{"ha":696,"x_min":38,"x_max":658,"o":"m 603 789 q 543 721 603 746 q 492 780 524 750 q 440 825 461 810 l 419 842 q 246 738 285 738 q 204 774 218 738 q 439 975 338 910 q 603 789 603 847 m 296 -14 q 106 58 174 -14 q 38 257 38 129 q 138 552 38 432 q 393 672 238 672 q 588 599 518 672 q 658 399 658 526 q 555 106 658 225 q 296 -14 451 -14 m 374 581 q 253 490 297 581 q 208 279 208 399 q 238 135 208 192 q 322 78 268 78 q 442 167 397 78 q 486 374 486 256 q 456 522 486 464 q 374 581 426 581 z "},"õ":{"ha":696,"x_min":38,"x_max":658,"o":"m 622 875 q 566 790 622 829 q 457 750 510 750 q 369 781 417 750 q 311 811 321 811 q 231 747 290 811 q 192 800 192 767 q 249 876 197 840 q 357 913 300 913 q 438 882 390 913 q 501 851 486 851 q 581 914 526 851 q 622 875 622 903 m 296 -14 q 106 58 174 -14 q 38 257 38 129 q 138 552 38 432 q 393 672 238 672 q 588 599 518 672 q 658 399 658 526 q 555 106 658 225 q 296 -14 451 -14 m 374 581 q 253 490 297 581 q 208 279 208 399 q 238 135 208 192 q 322 78 268 78 q 442 167 397 78 q 486 374 486 256 q 456 522 486 464 q 374 581 426 581 z "},"ö":{"ha":696,"x_min":38,"x_max":658,"o":"m 296 -14 q 106 58 174 -14 q 38 257 38 129 q 138 552 38 432 q 393 672 238 672 q 588 599 518 672 q 658 399 658 526 q 555 106 658 225 q 296 -14 451 -14 m 374 581 q 253 490 297 581 q 208 279 208 399 q 238 135 208 192 q 322 78 268 78 q 442 167 397 78 q 486 374 486 256 q 456 522 486 464 q 374 581 426 581 m 540 738 q 484 760 506 738 q 463 822 463 783 q 493 899 463 867 q 564 931 524 931 q 619 905 596 931 q 642 842 642 879 q 609 768 642 799 q 540 738 576 738 m 300 738 q 244 760 265 738 q 222 822 222 783 q 253 899 222 867 q 324 931 283 931 q 378 905 356 931 q 401 842 401 879 q 369 768 401 799 q 300 738 336 738 z "},"÷":{"ha":797,"x_min":106,"x_max":692,"o":"m 692 361 q 672 313 692 333 q 619 293 651 293 q 519 299 597 293 q 408 304 442 304 q 113 290 263 304 q 106 344 106 325 q 123 392 106 371 q 178 413 140 413 q 261 408 182 413 q 406 403 340 403 q 683 415 582 403 q 692 361 692 392 m 413 499 q 351 523 376 499 q 326 586 326 547 q 351 649 326 624 q 413 675 376 675 q 472 649 447 675 q 496 586 496 624 q 472 523 496 547 q 413 499 447 499 m 413 31 q 351 56 376 31 q 326 119 326 81 q 352 182 326 156 q 413 208 378 208 q 472 182 447 208 q 496 119 496 156 q 472 56 496 81 q 413 31 447 31 z "},"ø":{"ha":714,"x_min":38,"x_max":676,"o":"m 486 374 q 483 417 486 389 l 274 93 q 322 78 296 78 q 442 167 397 78 q 486 374 486 256 m 374 581 q 253 490 297 581 q 208 279 208 399 q 215 199 208 238 q 341 390 267 278 q 442 544 415 503 q 374 581 413 581 m 296 -14 q 211 -3 251 -14 q 144 -117 165 -76 q 81 -100 104 -114 q 57 -64 57 -86 q 118 44 57 -49 q 38 257 38 117 q 138 552 38 432 q 393 672 238 672 q 508 651 453 672 q 589 783 515 661 q 651 767 626 781 q 676 731 676 753 q 596 590 676 717 q 658 399 658 519 q 555 106 658 225 q 296 -14 451 -14 z "},"ù":{"ha":696,"x_min":69,"x_max":638,"o":"m 228 879 q 190 939 190 903 q 247 1014 190 989 q 450 833 310 935 q 476 786 476 815 q 450 728 476 751 q 347 799 432 744 q 228 879 263 853 m 279 586 q 250 369 279 528 q 221 183 221 210 q 276 93 221 93 q 363 151 318 93 q 442 299 408 208 q 457 413 446 333 q 474 546 468 492 q 483 658 481 600 q 561 668 518 668 q 638 619 638 668 q 635 593 638 611 q 625 538 632 575 q 614 469 618 500 q 601 390 614 467 q 579 249 588 313 q 571 154 571 186 q 610 79 571 96 q 572 11 604 36 q 501 -14 540 -14 q 440 8 465 -14 q 415 72 415 31 q 419 122 415 97 q 322 22 379 57 q 211 -14 264 -14 q 106 35 143 -14 q 69 161 69 83 q 96 336 69 186 q 122 519 122 486 q 85 579 122 554 q 117 642 88 613 q 193 672 146 672 q 254 651 229 672 q 279 586 279 631 z "},"ú":{"ha":696,"x_min":69,"x_max":638,"o":"m 578 849 q 452 788 543 829 q 340 729 361 746 q 307 789 307 763 q 339 833 307 817 q 456 900 378 851 q 575 985 535 949 q 621 914 621 961 q 578 849 621 874 m 279 586 q 250 369 279 528 q 221 183 221 210 q 276 93 221 93 q 363 151 318 93 q 442 299 408 208 q 457 413 446 333 q 474 546 468 492 q 483 658 481 600 q 561 668 518 668 q 638 619 638 668 q 635 593 638 611 q 625 538 632 575 q 614 469 618 500 q 601 390 614 467 q 579 249 588 313 q 571 154 571 186 q 610 79 571 96 q 572 11 604 36 q 501 -14 540 -14 q 440 8 465 -14 q 415 72 415 31 q 419 122 415 97 q 322 22 379 57 q 211 -14 264 -14 q 106 35 143 -14 q 69 161 69 83 q 96 336 69 186 q 122 519 122 486 q 85 579 122 554 q 117 642 88 613 q 193 672 146 672 q 254 651 229 672 q 279 586 279 631 z "},"û":{"ha":696,"x_min":69,"x_max":638,"o":"m 592 789 q 532 721 592 746 q 481 780 513 750 q 429 825 450 810 l 408 842 q 235 738 274 738 q 193 774 207 738 q 428 975 326 910 q 592 789 592 847 m 279 586 q 250 369 279 528 q 221 183 221 210 q 276 93 221 93 q 363 151 318 93 q 442 299 408 208 q 457 413 446 333 q 474 546 468 492 q 483 658 481 600 q 561 668 518 668 q 638 619 638 668 q 635 593 638 611 q 625 538 632 575 q 614 469 618 500 q 601 390 614 467 q 579 249 588 313 q 571 154 571 186 q 610 79 571 96 q 572 11 604 36 q 501 -14 540 -14 q 440 8 465 -14 q 415 72 415 31 q 419 122 415 97 q 322 22 379 57 q 211 -14 264 -14 q 106 35 143 -14 q 69 161 69 83 q 96 336 69 186 q 122 519 122 486 q 85 579 122 554 q 117 642 88 613 q 193 672 146 672 q 254 651 229 672 q 279 586 279 631 z "},"ü":{"ha":696,"x_min":69,"x_max":638,"o":"m 279 586 q 250 369 279 528 q 221 183 221 210 q 276 93 221 93 q 363 151 318 93 q 442 299 408 208 q 457 413 446 333 q 474 546 468 492 q 483 658 481 600 q 561 668 518 668 q 638 619 638 668 q 635 593 638 611 q 625 538 632 575 q 614 469 618 500 q 601 390 614 467 q 579 249 588 313 q 571 154 571 186 q 610 79 571 96 q 572 11 604 36 q 501 -14 540 -14 q 440 8 465 -14 q 415 72 415 31 q 419 122 415 97 q 322 22 379 57 q 211 -14 264 -14 q 106 35 143 -14 q 69 161 69 83 q 96 336 69 186 q 122 519 122 486 q 85 579 122 554 q 117 642 88 613 q 193 672 146 672 q 254 651 229 672 q 279 586 279 631 m 503 738 q 447 760 468 738 q 425 822 425 783 q 456 899 425 867 q 526 931 486 931 q 581 905 558 931 q 604 842 604 879 q 572 768 604 799 q 503 738 539 738 m 263 738 q 206 760 228 738 q 185 822 185 783 q 215 899 185 867 q 286 931 246 931 q 341 905 318 931 q 364 842 364 879 q 331 768 364 799 q 263 738 299 738 z "},"ý":{"ha":601,"x_min":-264,"x_max":581,"o":"m 508 849 q 383 788 474 829 q 271 729 292 746 q 238 789 238 763 q 269 833 238 817 q 387 900 308 851 q 506 985 465 949 q 551 914 551 961 q 508 849 551 874 m 208 604 q 300 168 272 425 q 422 560 422 401 q 406 646 422 599 q 492 672 454 672 q 581 579 581 672 q 509 303 581 471 q 336 -10 438 136 q 205 -178 261 -117 q 71 -279 149 -239 q -100 -319 -7 -319 q -216 -297 -168 -319 q -264 -237 -264 -275 q -199 -153 -264 -192 q -83 -228 -158 -228 q 188 -14 47 -228 q 124 362 182 161 q 10 610 65 563 q 114 672 63 672 q 208 604 185 672 z "},"þ":{"ha":701,"x_min":18,"x_max":664,"o":"m 285 547 q 478 672 364 672 q 664 414 664 672 q 570 108 664 229 q 357 -14 476 -14 q 206 47 272 -14 q 171 -190 171 -151 q 204 -275 171 -243 q 100 -351 154 -351 q 18 -226 18 -351 q 103 336 18 -150 q 188 868 188 822 q 150 939 188 919 q 183 1004 153 976 q 258 1032 214 1032 q 324 1006 303 1032 q 344 943 344 981 q 285 547 344 892 m 261 386 q 219 139 253 318 q 322 76 267 76 q 442 163 392 76 q 493 399 493 249 q 404 565 493 565 q 261 386 339 565 z "},"ÿ":{"ha":601,"x_min":-264,"x_max":581,"o":"m 208 604 q 300 168 272 425 q 422 560 422 401 q 406 646 422 599 q 492 672 454 672 q 581 579 581 672 q 509 303 581 471 q 336 -10 438 136 q 205 -178 261 -117 q 71 -279 149 -239 q -100 -319 -7 -319 q -216 -297 -168 -319 q -264 -237 -264 -275 q -199 -153 -264 -192 q -83 -228 -158 -228 q 188 -14 47 -228 q 124 362 182 161 q 10 610 65 563 q 114 672 63 672 q 208 604 185 672 m 425 738 q 369 760 390 738 q 347 822 347 783 q 378 899 347 867 q 449 931 408 931 q 503 905 481 931 q 526 842 526 879 q 494 768 526 799 q 425 738 461 738 m 185 738 q 128 760 150 738 q 107 822 107 783 q 138 899 107 867 q 208 931 168 931 q 263 905 240 931 q 286 842 286 879 q 253 768 286 799 q 185 738 221 738 z "},"ı":{"ha":322,"x_min":56,"x_max":278,"o":"m 121 508 q 83 579 121 561 q 119 647 88 621 q 192 672 151 672 q 253 650 228 672 q 278 585 278 628 q 240 349 278 532 q 201 150 201 167 q 253 72 201 94 q 222 11 247 36 q 156 -14 196 -14 q 80 24 104 -14 q 56 113 56 61 q 88 319 56 178 q 121 508 121 461 z "},"Ł":{"ha":561,"x_min":-50,"x_max":561,"o":"m 543 138 q 561 56 561 88 q 515 6 561 15 q 338 -4 468 -4 q 133 -1 172 -4 q 92 12 104 0 q 81 47 81 24 q 114 342 81 93 q -12 244 13 265 q -50 307 -50 272 q -24 354 -50 331 l 132 464 q 182 921 182 828 q 261 925 213 925 q 342 879 342 925 l 297 579 q 435 686 319 596 q 472 625 472 663 q 446 576 472 599 l 279 461 q 240 107 249 247 q 310 104 276 104 q 450 114 379 104 q 543 138 521 124 z "},"ł":{"ha":314,"x_min":-64,"x_max":458,"o":"m -37 396 l 133 517 q 188 868 182 786 q 150 939 188 919 q 183 1004 153 976 q 258 1032 214 1032 q 324 1006 303 1032 q 344 943 344 981 q 300 633 344 900 q 421 728 331 656 q 458 667 458 704 q 432 618 458 640 l 278 511 q 221 151 224 192 q 272 72 221 93 q 174 -14 256 -14 q 99 24 124 -14 q 75 113 75 61 q 113 392 75 174 q -26 286 99 382 q -64 349 -64 314 q -37 396 -64 372 z "},"Œ":{"ha":1188,"x_min":64,"x_max":1208,"o":"m 225 404 q 278 169 225 244 q 440 93 332 93 q 613 121 518 93 q 653 424 617 160 q 696 796 689 689 q 531 826 626 826 q 307 714 389 826 q 225 404 225 601 m 1178 783 q 972 813 1119 813 q 849 808 915 813 q 818 547 846 742 q 1039 553 997 547 q 1042 514 1042 533 q 983 439 1042 443 q 803 438 953 438 q 767 107 767 143 q 836 104 803 104 q 976 114 906 104 q 1069 138 1047 124 q 1088 56 1088 88 q 1041 6 1088 15 q 864 -4 994 -4 q 660 -1 699 -4 q 613 18 625 0 q 428 -14 507 -14 q 164 77 264 -14 q 64 367 64 168 q 198 780 64 625 q 544 935 332 935 q 700 907 604 935 q 990 924 890 924 q 1201 903 1179 924 q 1208 864 1208 888 q 1178 783 1208 822 z "},"œ":{"ha":1065,"x_min":38,"x_max":1026,"o":"m 854 497 q 837 558 854 533 q 792 582 819 582 q 701 509 740 582 q 654 328 663 436 q 699 330 681 328 q 750 342 718 332 q 802 368 782 351 q 838 418 822 385 q 854 497 854 451 m 374 581 q 253 490 297 581 q 208 279 208 399 q 238 135 208 192 q 322 78 268 78 q 442 167 397 78 q 486 374 486 256 q 456 522 486 464 q 374 581 426 581 m 296 -14 q 106 58 174 -14 q 38 257 38 129 q 138 552 38 432 q 393 672 238 672 q 607 563 547 672 q 839 672 707 672 q 979 624 932 672 q 1026 504 1026 576 q 986 370 1026 435 q 878 278 946 306 q 699 246 803 246 q 653 249 678 246 q 687 120 654 163 q 767 78 719 78 q 843 104 806 78 q 904 175 881 131 q 971 93 971 149 q 906 18 971 50 q 756 -14 840 -14 q 532 96 599 -14 q 296 -14 442 -14 z "},"Š":{"ha":665,"x_min":33,"x_max":665,"o":"m 424 1118 q 597 1222 558 1222 q 649 1186 626 1222 q 404 985 525 1063 q 240 1171 240 1113 q 300 1239 240 1207 q 351 1180 319 1210 q 403 1133 382 1150 l 424 1118 m 561 726 q 508 793 549 765 q 422 821 468 821 q 310 779 357 821 q 264 661 264 738 q 296 586 264 613 q 389 538 328 560 q 433 522 397 535 q 481 504 468 510 q 522 484 493 499 q 562 456 550 469 q 590 422 574 443 q 612 375 606 401 q 618 315 618 349 q 526 73 618 160 q 279 -14 433 -14 q 108 22 182 -14 q 33 106 33 57 q 122 204 33 171 q 188 126 138 158 q 292 94 239 94 q 418 141 364 94 q 472 271 472 188 q 439 347 472 322 q 342 392 406 372 q 277 411 297 404 q 219 438 257 418 q 165 480 182 458 q 132 540 147 501 q 117 629 117 579 q 210 851 117 771 q 446 932 304 932 q 596 901 526 932 q 665 817 665 871 q 640 758 665 783 q 561 726 614 732 z "},"š":{"ha":589,"x_min":7,"x_max":556,"o":"m 331 854 q 504 958 465 958 q 556 922 533 958 q 311 721 432 799 q 147 907 147 849 q 207 975 147 943 q 258 916 226 946 q 310 869 289 886 l 331 854 m 399 479 q 359 551 385 528 q 303 575 333 575 q 233 544 265 575 q 201 472 201 514 q 230 414 201 435 q 299 382 258 393 q 379 356 339 371 q 448 301 419 340 q 476 200 476 263 q 401 40 476 94 q 204 -14 325 -14 q 65 17 122 -14 q 7 99 7 47 q 90 186 7 169 q 138 113 103 139 q 214 86 172 86 q 308 112 272 86 q 343 172 343 138 q 315 229 343 208 q 246 263 286 250 q 165 292 206 275 q 95 347 124 308 q 67 447 67 386 q 143 617 67 560 q 329 674 219 674 q 446 644 390 674 q 501 561 501 614 q 399 479 501 490 z "},"Ÿ":{"ha":650,"x_min":65,"x_max":724,"o":"m 724 861 q 474 494 724 815 q 424 429 440 451 l 404 282 q 388 92 388 160 q 393 7 388 44 q 310 -4 344 -4 q 228 68 228 -4 q 232 109 228 76 q 249 238 236 142 q 276 435 263 335 q 65 860 147 790 q 178 926 129 926 q 251 879 228 926 q 382 549 329 719 q 589 933 574 853 q 724 861 724 933 m 551 1001 q 495 1024 517 1001 q 474 1086 474 1047 q 504 1163 474 1131 q 575 1194 535 1194 q 630 1169 607 1194 q 653 1106 653 1143 q 620 1032 653 1063 q 551 1001 588 1001 m 311 1001 q 255 1024 276 1001 q 233 1086 233 1047 q 264 1163 233 1131 q 335 1194 294 1194 q 390 1169 367 1194 q 413 1106 413 1143 q 380 1032 413 1063 q 311 1001 347 1001 z "},"Ž":{"ha":735,"x_min":53,"x_max":732,"o":"m 468 1118 q 642 1222 603 1222 q 693 1186 671 1222 q 449 985 569 1063 q 285 1171 285 1113 q 344 1239 285 1207 q 395 1180 364 1210 q 447 1133 426 1150 l 468 1118 m 197 926 q 385 908 239 926 q 601 889 531 889 q 700 907 665 889 q 732 826 732 875 q 706 738 732 769 l 328 286 q 214 138 253 194 q 382 120 265 138 q 549 103 499 103 q 676 125 632 103 q 692 71 692 93 q 549 -14 692 -14 q 390 3 510 -14 q 206 21 271 21 q 90 4 138 21 q 53 85 53 53 q 78 165 53 117 q 558 778 160 317 q 409 796 519 781 q 236 811 299 811 q 117 785 172 811 q 100 847 100 819 q 197 926 100 926 z "},"ž":{"ha":592,"x_min":15,"x_max":585,"o":"m 360 854 q 533 958 494 958 q 585 922 563 958 q 340 721 461 799 q 176 907 176 849 q 236 975 176 943 q 287 916 256 946 q 339 869 318 886 l 360 854 m 150 672 q 299 659 183 672 q 469 646 414 646 q 557 658 531 646 q 581 593 581 635 q 557 524 581 551 q 206 115 289 224 q 309 103 235 114 q 419 92 383 92 q 514 108 479 92 q 525 56 525 86 q 414 -14 525 -14 q 289 -1 382 -14 q 144 11 196 11 q 42 -1 83 11 q 15 57 15 35 q 33 114 15 82 q 393 549 93 219 q 295 558 369 550 q 178 567 221 567 q 89 547 131 567 q 78 607 78 581 q 150 672 78 672 z "},"ƒ":{"ha":797,"x_min":17,"x_max":756,"o":"m 465 511 l 399 183 q 363 47 382 104 q 312 -62 343 -10 q 233 -140 281 -114 q 122 -167 185 -167 q 17 -97 17 -167 q 49 -35 17 -58 q 125 -3 82 -11 q 157 -71 125 -71 q 188 -61 175 -71 q 210 -22 200 -51 q 226 31 221 8 q 243 110 232 54 l 326 513 q 258 506 276 510 q 256 532 256 528 q 315 583 256 581 l 340 583 q 440 842 372 746 q 635 938 507 938 q 726 917 696 938 q 756 864 756 896 q 720 802 756 825 q 642 772 685 779 q 599 840 632 840 q 565 833 581 840 q 539 807 550 825 q 520 772 528 789 q 506 724 513 756 q 495 675 499 693 q 486 619 492 657 l 482 592 q 632 610 572 599 q 639 576 639 586 q 618 522 639 536 q 551 507 597 507 q 465 511 511 507 z "},"ˆ":{"ha":519,"x_min":96,"x_max":494,"o":"m 494 789 q 435 721 494 746 q 384 780 415 750 q 332 825 353 810 l 311 842 q 138 738 176 738 q 96 774 110 738 q 331 975 229 910 q 494 789 494 847 z "},"ˇ":{"ha":526,"x_min":157,"x_max":565,"o":"m 340 854 q 514 958 475 958 q 565 922 543 958 q 321 721 442 799 q 157 907 157 849 q 217 975 157 943 q 267 916 236 946 q 319 869 299 886 l 340 854 z "},"˘":{"ha":478,"x_min":164,"x_max":531,"o":"m 251 862 q 261 847 251 862 q 326 832 271 832 q 418 861 382 832 q 489 954 454 890 q 531 925 531 950 q 458 806 531 871 q 303 742 385 742 q 200 784 236 742 q 164 879 164 826 q 231 954 164 949 q 251 862 231 892 z "},"˙":{"ha":508,"x_min":228,"x_max":407,"o":"m 306 738 q 249 760 271 738 q 228 822 228 783 q 258 899 228 867 q 329 931 289 931 q 384 905 361 931 q 407 842 407 879 q 374 768 407 799 q 306 738 342 738 z "},"˚":{"ha":497,"x_min":207,"x_max":471,"o":"m 349 919 q 303 898 321 919 q 286 844 286 876 q 331 789 286 789 q 374 811 357 789 q 390 864 390 833 q 349 919 390 919 m 321 722 q 239 753 271 722 q 207 832 207 785 q 250 940 207 894 q 358 986 293 986 q 440 957 410 986 q 471 878 471 928 q 428 769 471 815 q 321 722 386 722 z "},"˛":{"ha":535,"x_min":125,"x_max":431,"o":"m 357 21 l 431 1 q 256 -197 256 -83 q 289 -244 256 -244 q 369 -187 325 -244 q 408 -240 408 -214 q 362 -301 408 -281 q 265 -321 315 -321 q 165 -294 206 -321 q 125 -211 125 -268 q 145 -131 125 -168 q 203 -65 165 -93 q 275 -17 240 -36 q 357 21 310 1 z "},"˜":{"ha":503,"x_min":103,"x_max":533,"o":"m 533 861 q 477 776 533 815 q 368 736 421 736 q 280 767 328 736 q 222 797 232 797 q 142 733 201 797 q 103 786 103 753 q 160 863 108 826 q 268 899 211 899 q 349 868 301 899 q 413 838 397 838 q 492 900 438 838 q 533 861 533 889 z "},"˝":{"ha":544,"x_min":1,"x_max":549,"o":"m 549 933 q 500 868 549 900 q 399 808 486 858 q 275 726 311 758 q 246 782 246 756 q 269 831 246 813 q 358 896 293 850 q 486 1010 422 942 q 549 933 549 968 m 304 933 q 256 868 304 900 q 154 808 242 858 q 31 726 67 758 q 1 782 1 756 q 25 831 1 813 q 113 896 49 850 q 242 1010 178 942 q 304 933 304 968 z "},"π":{"ha":682,"x_min":26,"x_max":733,"o":"m 126 656 l 157 656 q 424 653 249 653 l 521 653 q 721 686 638 653 q 733 638 733 651 q 632 561 733 561 l 583 561 q 539 313 565 472 q 513 89 513 153 q 522 14 513 42 q 447 -4 482 -4 q 367 51 367 -4 q 440 564 367 107 l 289 564 q 224 75 235 169 q 199 15 219 33 q 132 -4 178 -4 q 64 15 103 -4 q 124 242 106 96 q 158 561 139 372 q 44 528 90 556 q 26 579 26 551 q 126 656 26 656 z "},"–":{"ha":797,"x_min":89,"x_max":708,"o":"m 708 371 q 689 326 708 343 q 638 308 669 308 q 574 311 615 308 q 506 314 532 314 l 265 314 q 94 300 186 314 q 89 354 89 333 q 106 398 89 379 q 160 417 122 417 q 213 414 171 417 q 297 411 256 411 l 540 411 q 699 425 619 411 q 708 371 708 396 z "},"—":{"ha":1129,"x_min":42,"x_max":1088,"o":"m 1083 429 q 1088 396 1088 413 q 1068 334 1088 358 q 1010 310 1049 310 q 936 313 989 310 q 854 317 883 317 l 206 317 q 43 301 132 317 q 42 328 42 310 q 118 421 42 421 q 184 418 131 421 q 271 415 238 415 l 933 415 q 1083 429 1015 415 z "},"‘":{"ha":333,"x_min":106,"x_max":363,"o":"m 240 839 q 290 779 240 792 q 300 739 300 750 q 269 676 300 701 q 193 650 238 650 q 131 674 156 650 q 106 750 106 699 q 170 935 106 844 q 311 1026 235 1026 q 363 985 363 1026 q 353 950 363 969 l 331 950 q 266 915 292 950 q 240 839 240 881 z "},"’":{"ha":335,"x_min":92,"x_max":349,"o":"m 214 839 q 164 899 214 886 q 154 939 154 928 q 185 1002 154 976 q 261 1028 217 1028 q 324 1003 299 1028 q 349 928 349 979 q 284 742 349 833 q 143 651 219 651 q 92 693 92 651 q 101 728 92 708 l 124 728 q 188 763 163 728 q 214 839 214 797 z "},"‚":{"ha":343,"x_min":0,"x_max":257,"o":"m 122 -22 q 72 38 122 25 q 63 78 63 67 q 94 141 63 115 q 169 167 125 167 q 232 142 207 167 q 257 67 257 118 q 192 -119 257 -28 q 51 -210 128 -210 q 0 -168 0 -210 q 10 -133 0 -153 l 32 -133 q 97 -99 71 -133 q 122 -22 122 -64 z "},"“":{"ha":651,"x_min":106,"x_max":681,"o":"m 558 838 q 608 778 558 790 q 618 738 618 749 q 587 674 618 700 q 511 649 556 649 q 449 673 474 649 q 424 749 424 697 q 488 934 424 843 q 629 1025 553 1025 q 681 983 681 1025 q 671 949 681 968 l 649 949 q 584 914 610 949 q 558 838 558 879 m 240 838 q 290 778 240 790 q 300 738 300 749 q 269 674 300 700 q 193 649 238 649 q 131 673 156 649 q 106 749 106 697 q 170 934 106 843 q 311 1025 235 1025 q 363 983 363 1025 q 353 949 363 968 l 331 949 q 266 914 292 949 q 240 838 240 879 z "},"”":{"ha":643,"x_min":92,"x_max":657,"o":"m 522 839 q 472 899 522 886 q 463 939 463 928 q 494 1002 463 976 q 569 1028 525 1028 q 632 1003 607 1028 q 657 928 657 979 q 592 742 657 833 q 451 651 528 651 q 400 693 400 651 q 410 728 400 708 l 432 728 q 497 763 471 728 q 522 839 522 797 m 214 839 q 164 899 214 886 q 154 939 154 928 q 185 1002 154 976 q 261 1028 217 1028 q 324 1003 299 1028 q 349 928 349 979 q 284 742 349 833 q 143 651 219 651 q 92 693 92 651 q 101 728 92 708 l 124 728 q 188 763 163 728 q 214 839 214 797 z "},"„":{"ha":650,"x_min":0,"x_max":564,"o":"m 429 -22 q 379 38 429 25 q 369 78 369 67 q 401 141 369 115 q 476 167 432 167 q 539 142 514 167 q 564 67 564 118 q 499 -119 564 -28 q 358 -210 435 -210 q 307 -168 307 -210 q 317 -133 307 -153 l 339 -133 q 403 -99 378 -133 q 429 -22 429 -64 m 122 -22 q 72 38 122 25 q 63 78 63 67 q 94 141 63 115 q 169 167 125 167 q 232 142 207 167 q 257 67 257 118 q 192 -119 257 -28 q 51 -210 128 -210 q 0 -168 0 -210 q 10 -133 0 -153 l 32 -133 q 97 -99 71 -133 q 122 -22 122 -64 z "},"†":{"ha":636,"x_min":88,"x_max":636,"o":"m 90 636 q 174 708 101 708 q 228 700 188 708 q 307 690 269 692 q 321 924 310 719 q 403 936 378 936 q 481 924 428 936 q 431 690 450 786 q 624 729 504 694 q 636 679 636 703 q 612 608 636 629 q 526 586 588 586 q 469 589 504 586 q 417 592 433 592 q 354 -32 381 274 q 327 -85 353 -54 q 276 -135 301 -115 l 251 -154 q 181 -40 181 -92 q 195 50 181 -25 q 239 278 210 125 q 293 594 268 432 q 183 586 250 593 q 88 578 115 579 q 90 636 88 614 z "},"‡":{"ha":639,"x_min":22,"x_max":639,"o":"m 410 390 q 388 297 406 364 q 365 197 371 229 q 431 201 399 199 q 503 208 463 204 q 571 215 543 213 q 568 157 571 179 q 485 85 557 85 q 427 93 469 85 q 351 103 385 101 q 338 -131 343 33 q 257 -143 279 -143 q 178 -131 225 -143 q 228 103 215 35 q 35 63 154 99 q 22 113 22 92 q 49 185 22 164 q 132 207 75 207 q 188 203 150 207 q 242 200 226 200 q 246 264 246 235 q 245 295 246 276 q 244 321 244 314 q 268 481 244 390 q 296 594 292 571 q 192 586 256 593 q 90 578 128 579 q 93 636 90 614 q 176 708 104 708 q 236 699 190 708 q 310 690 282 690 q 324 924 317 751 q 404 936 382 936 q 483 924 436 936 q 460 815 476 892 q 433 690 443 738 q 626 729 507 694 q 639 679 639 703 q 613 607 639 628 q 531 586 588 586 q 509 587 521 586 q 472 590 497 588 q 419 593 447 592 q 414 476 414 539 q 410 390 414 431 z "},"•":{"ha":443,"x_min":53,"x_max":397,"o":"m 201 183 q 94 227 136 183 q 53 342 53 271 q 112 497 53 429 q 253 564 171 564 q 356 518 315 564 q 397 401 397 472 q 339 247 397 311 q 201 183 281 183 z "},"…":{"ha":1125,"x_min":40,"x_max":1072,"o":"m 544 -14 q 485 10 510 -14 q 461 75 461 35 q 494 161 461 124 q 572 199 528 199 q 630 173 607 199 q 653 108 653 147 q 622 22 653 58 q 544 -14 590 -14 m 964 -14 q 905 10 929 -14 q 881 75 881 35 q 914 161 881 124 q 992 199 947 199 q 1049 173 1026 199 q 1072 108 1072 147 q 1041 22 1072 58 q 964 -14 1010 -14 m 124 -14 q 65 10 89 -14 q 40 75 40 35 q 74 161 40 124 q 151 199 107 199 q 209 173 186 199 q 232 108 232 147 q 201 22 232 58 q 124 -14 169 -14 z "},"‰":{"ha":1563,"x_min":92,"x_max":1471,"o":"m 1286 372 q 1213 318 1242 372 q 1185 197 1185 264 q 1199 110 1185 146 q 1243 74 1214 74 q 1314 129 1286 74 q 1342 253 1342 185 q 1328 338 1342 303 q 1286 372 1314 372 m 1235 -14 q 1104 37 1151 -14 q 1057 175 1057 88 q 1123 376 1057 294 q 1294 457 1189 457 q 1424 407 1378 457 q 1471 269 1471 357 q 1406 68 1471 150 q 1235 -14 1340 -14 m 321 839 q 248 785 276 839 q 219 664 219 731 q 234 576 219 613 q 278 540 249 540 q 349 596 321 540 q 376 721 376 651 q 363 805 376 771 q 321 839 349 839 m 801 372 q 728 318 757 372 q 700 197 700 264 q 715 110 700 146 q 758 74 729 74 q 829 129 801 74 q 857 253 857 185 q 843 338 857 303 q 801 372 829 372 m 250 -43 q 189 -28 215 -43 q 163 8 163 -14 q 190 63 163 24 q 344 276 217 103 q 644 685 511 503 q 836 963 735 810 q 897 948 871 963 q 924 911 924 933 q 919 894 924 904 q 903 867 915 885 q 878 833 890 849 q 840 781 867 817 q 790 713 813 744 l 444 238 q 250 -43 351 111 m 750 -14 q 619 37 667 -14 q 572 175 572 88 q 638 376 572 294 q 810 457 704 457 q 940 407 893 457 q 986 269 986 357 q 921 68 986 150 q 750 -14 856 -14 m 269 453 q 139 504 186 453 q 92 643 92 556 q 158 844 92 763 q 329 925 224 925 q 459 875 413 925 q 506 736 506 825 q 440 535 506 617 q 269 453 374 453 z "},"‹":{"ha":428,"x_min":79,"x_max":407,"o":"m 407 556 q 349 463 407 535 q 231 326 292 390 q 344 108 344 151 q 289 49 344 81 q 79 328 185 146 q 363 606 253 524 q 407 556 407 581 z "},"›":{"ha":428,"x_min":21,"x_max":349,"o":"m 21 101 q 78 194 21 122 q 197 331 136 267 q 83 549 83 506 q 139 608 83 576 q 349 329 243 511 q 65 51 175 132 q 21 101 21 76 z "},"⁄":{"ha":342,"x_min":-211,"x_max":542,"o":"m -200 -74 l 285 733 q 453 1028 396 918 q 542 988 542 1028 q 529 951 542 972 l 44 146 q -125 -149 -82 -64 q -211 -106 -211 -146 q -200 -74 -211 -90 z "},"€":{"ha":797,"x_min":64,"x_max":769,"o":"m 322 568 l 447 568 q 654 576 576 568 q 657 549 657 563 q 599 493 657 493 l 303 493 q 293 418 300 481 l 426 418 q 635 426 554 418 q 638 403 638 410 q 578 343 638 343 l 293 343 q 363 156 304 224 q 488 88 421 88 q 629 143 560 88 q 668 72 668 114 q 476 -12 668 -12 q 246 74 340 -12 q 147 343 151 160 q 103 338 132 342 q 68 335 74 335 q 64 363 64 342 q 122 418 64 418 l 149 418 q 160 493 151 463 q 88 483 119 490 q 83 508 83 492 q 143 568 83 568 l 176 568 q 279 781 208 696 q 429 901 350 867 q 596 936 508 936 q 769 868 769 936 q 706 782 769 821 q 579 838 647 838 q 433 768 508 838 q 322 568 358 699 z "},"™":{"ha":1224,"x_min":111,"x_max":1150,"o":"m 176 907 l 346 907 q 521 914 457 907 q 526 871 526 893 q 464 821 526 821 l 381 821 l 381 571 q 400 408 381 468 q 326 394 350 394 q 271 410 285 394 q 257 458 257 425 l 257 821 q 121 815 169 821 q 111 858 111 839 q 127 894 111 885 q 176 907 143 904 m 1132 760 l 1132 557 q 1150 408 1132 469 q 1078 394 1108 394 q 1022 410 1036 394 q 1007 458 1007 425 q 1008 591 1007 543 q 1008 681 1008 639 q 922 407 947 499 q 871 396 896 396 q 803 429 818 396 q 750 574 785 467 q 713 686 715 681 l 713 557 q 731 408 713 469 q 665 394 689 394 q 609 410 624 394 q 594 458 594 425 q 595 585 594 490 q 596 765 596 681 q 582 899 596 833 q 660 913 633 913 q 742 865 715 913 q 863 574 810 746 q 985 865 913 733 q 1069 913 1011 913 q 1146 893 1100 913 q 1132 760 1132 836 z "},"Ω":{"ha":1204,"x_min":53,"x_max":1113,"o":"m 665 846 q 428 722 519 846 q 336 431 336 597 q 499 136 336 244 q 496 89 499 103 q 385 0 479 0 l 63 0 q 53 182 53 114 q 53 206 53 199 q 59 224 54 214 q 74 238 64 233 q 103 242 85 242 q 131 236 115 242 q 185 101 156 153 l 376 101 q 182 446 182 236 q 328 796 182 651 q 675 940 475 940 q 959 842 849 940 q 1069 582 1069 744 q 983 306 1069 429 q 757 101 896 182 l 950 101 q 1040 236 978 132 q 1069 242 1057 242 q 1113 213 1113 242 q 1099 160 1113 201 q 1068 66 1086 118 q 1046 0 1050 14 l 725 0 q 633 72 633 0 q 647 138 633 100 q 910 571 910 285 q 847 772 910 699 q 665 846 785 846 z "},"∂":{"ha":725,"x_min":40,"x_max":679,"o":"m 390 471 q 242 391 306 471 q 178 201 178 311 q 274 82 178 82 q 432 180 367 82 q 526 413 497 278 q 390 471 457 471 m 297 936 q 584 838 489 936 q 679 563 679 739 q 654 369 679 467 q 581 183 629 271 q 449 41 532 96 q 264 -14 367 -14 q 96 49 151 -14 q 40 210 40 113 q 140 460 40 354 q 374 565 240 565 q 467 547 418 565 q 540 503 515 529 q 543 571 543 539 q 492 766 543 697 q 344 835 442 835 q 203 806 279 835 q 192 867 192 842 q 297 936 192 936 z "},"∆":{"ha":943,"x_min":26,"x_max":815,"o":"m 483 732 l 149 121 q 392 111 221 111 q 643 121 564 111 l 483 732 m 749 0 l 75 0 q 26 47 26 0 q 28 65 26 58 q 458 858 363 672 q 538 894 476 894 q 588 889 571 894 q 815 67 742 318 q 749 0 806 0 z "},"∏":{"ha":924,"x_min":79,"x_max":1026,"o":"m 942 811 q 883 813 933 811 q 811 815 832 815 q 758 529 779 672 q 707 96 707 151 q 713 14 707 47 q 625 -4 672 -4 q 563 10 581 -4 q 544 56 544 25 q 552 117 544 67 q 571 236 560 167 q 585 325 582 306 l 654 819 q 400 818 467 819 q 331 322 358 529 q 315 208 326 296 q 299 82 304 119 q 272 17 292 38 q 206 -4 251 -4 q 126 15 165 -4 q 193 288 167 104 q 228 544 215 435 q 249 728 242 654 q 258 817 257 801 q 89 796 182 814 q 79 838 79 821 q 103 905 79 886 q 188 924 126 924 q 290 922 197 924 q 428 921 383 921 l 686 921 q 1026 931 868 921 l 1026 908 q 942 811 1026 811 z "},"∑":{"ha":857,"x_min":-31,"x_max":804,"o":"m 681 814 l 288 815 q 465 436 376 624 q 454 396 465 414 q 378 293 443 378 q 281 167 349 256 q 178 31 214 79 l 629 31 q 651 57 639 40 q 672 88 663 74 q 696 127 681 101 q 719 165 711 153 q 749 171 736 171 q 792 143 792 171 q 718 -86 792 111 l 7 -86 q -31 -50 -31 -86 l 317 400 q 208 642 279 483 q 108 867 138 800 q 126 901 110 888 q 165 914 142 914 l 796 914 q 804 743 804 764 q 793 707 804 719 q 751 694 782 694 q 724 699 740 694 q 681 814 700 779 z "},"−":{"ha":797,"x_min":108,"x_max":688,"o":"m 688 358 q 668 312 688 329 q 615 294 649 294 q 537 298 594 294 q 449 301 479 301 l 286 301 q 115 286 208 301 q 108 342 108 319 q 126 387 108 368 q 181 406 143 406 q 250 403 193 406 q 342 400 307 400 l 519 400 q 678 414 607 400 q 688 358 688 385 z "},"√":{"ha":796,"x_min":43,"x_max":799,"o":"m 267 681 l 419 207 l 692 1021 q 739 1025 719 1025 q 799 990 799 1025 q 733 789 799 978 q 468 11 604 415 q 437 -32 457 -21 q 381 -43 417 -43 l 354 -43 l 154 572 q 69 528 107 550 q 43 568 43 547 q 65 600 43 586 q 156 644 94 618 q 267 681 218 669 z "},"∞":{"ha":1025,"x_min":44,"x_max":981,"o":"m 878 369 q 844 450 878 421 q 760 479 810 479 q 576 368 692 479 q 758 250 686 250 q 844 283 811 250 q 878 369 878 317 m 267 250 q 454 358 343 250 q 258 479 353 479 q 178 444 210 479 q 147 360 147 410 q 182 283 147 315 q 267 250 217 250 m 264 576 q 394 540 336 576 q 515 438 453 503 q 591 507 563 483 q 670 553 619 531 q 772 576 721 576 q 922 517 863 576 q 981 367 981 457 q 915 211 981 268 q 757 154 849 154 q 638 185 694 154 q 511 288 582 217 q 258 154 378 154 q 106 215 168 154 q 44 364 44 275 q 107 516 44 456 q 264 576 169 576 z "},"∫":{"ha":449,"x_min":-87,"x_max":596,"o":"m 471 867 q 435 933 457 933 q 371 756 394 933 q 311 240 369 743 q 205 -122 283 -1 q 11 -242 126 -242 q -61 -221 -35 -242 q -87 -169 -87 -200 q -49 -110 -87 -133 q 36 -82 -10 -86 q 71 -147 53 -147 q 115 -101 96 -147 q 145 38 133 -54 q 163 198 157 129 q 176 378 169 267 q 192 540 182 463 q 226 711 201 618 q 283 870 250 804 q 371 981 315 936 q 496 1026 426 1026 q 569 1006 542 1026 q 596 954 596 986 q 556 894 596 919 q 471 867 517 869 z "},"≈":{"ha":797,"x_min":35,"x_max":763,"o":"m 763 240 q 697 148 763 194 q 557 101 632 101 q 430 128 493 101 q 317 181 367 154 q 238 207 267 207 q 183 191 210 207 q 140 159 156 175 q 104 117 125 143 q 53 142 72 125 q 35 174 35 158 q 101 267 35 221 q 240 313 167 313 q 366 286 306 313 q 474 233 426 260 q 561 207 522 207 q 615 223 589 207 q 657 255 642 239 q 693 299 672 271 q 744 272 726 289 q 763 240 763 256 m 763 511 q 697 419 763 465 q 557 372 632 372 q 430 399 493 372 q 317 451 367 425 q 238 478 267 478 q 183 462 210 478 q 140 430 156 446 q 104 388 125 414 q 53 413 72 396 q 35 444 35 429 q 101 538 35 492 q 240 583 167 583 q 366 557 306 583 q 474 504 426 531 q 561 478 522 478 q 615 494 589 478 q 657 526 642 510 q 693 569 672 542 q 744 543 726 560 q 763 511 763 526 z "},"≠":{"ha":797,"x_min":175,"x_max":622,"o":"m 175 81 q 182 126 175 106 q 394 115 274 115 q 486 118 422 115 q 554 121 542 121 q 599 100 585 121 q 614 53 614 79 q 608 7 614 33 q 392 19 486 19 q 299 15 369 19 q 235 13 254 13 q 192 32 208 13 q 175 81 175 51 m 322 654 l 622 419 q 485 313 593 397 q 322 185 376 229 q 279 164 294 164 q 232 185 254 164 q 200 233 210 206 l 471 418 l 201 607 q 233 655 211 635 q 279 675 256 675 q 322 654 299 675 z "},"≤":{"ha":797,"x_min":175,"x_max":622,"o":"m 622 81 q 606 32 622 51 q 563 13 589 13 q 499 15 543 13 q 406 19 428 19 q 189 7 311 19 q 183 53 183 33 q 198 100 183 79 q 243 121 213 121 q 311 118 256 121 q 403 115 375 115 q 615 126 524 115 q 622 81 622 106 m 175 418 l 475 654 q 518 675 499 675 q 564 655 542 675 q 596 607 586 635 q 326 418 397 467 q 363 392 336 411 q 420 353 390 374 q 476 315 450 332 q 597 233 561 261 q 565 185 588 206 q 518 164 543 164 q 469 186 499 164 l 175 418 z "},"≥":{"ha":797,"x_min":110,"x_max":689,"o":"m 689 225 q 669 178 689 200 q 629 157 649 157 q 501 163 594 157 q 329 168 408 168 q 282 85 314 142 q 233 -3 250 29 q 206 -62 217 -35 q 142 -19 142 -53 q 157 21 142 -7 l 235 163 q 117 154 150 157 q 110 210 110 189 q 129 258 110 239 q 182 276 149 276 q 241 274 200 276 q 294 271 282 271 l 389 440 q 117 426 250 440 q 110 481 110 461 q 127 528 110 507 q 182 549 144 549 q 289 544 203 549 q 444 539 375 539 q 490 620 460 567 q 539 710 519 674 q 571 776 558 747 q 635 733 635 768 q 633 719 635 726 q 622 696 631 711 q 605 665 614 681 q 576 613 596 649 q 536 540 556 578 q 681 551 618 543 q 689 497 689 526 q 669 449 689 469 q 618 429 649 429 q 478 438 542 429 q 437 363 469 422 q 383 267 404 303 q 682 278 575 267 q 689 225 689 258 z "},"◊":{"ha":711,"x_min":53,"x_max":697,"o":"m 568 475 l 425 840 l 182 476 l 325 114 l 568 475 m 53 476 l 357 925 q 440 953 379 953 q 518 922 506 953 l 697 476 l 393 31 q 308 0 367 0 q 231 31 243 0 l 53 476 z "},"":{"ha":797,"x_min":85,"x_max":679,"o":"m 317 94 l 353 360 q 283 382 308 372 q 226 412 258 392 q 178 465 193 432 q 163 543 163 497 q 230 715 163 649 q 411 803 297 782 q 421 904 419 869 q 449 908 440 908 q 490 878 490 908 q 483 808 490 874 l 489 808 q 620 779 561 808 q 679 701 679 750 q 574 621 679 632 q 475 701 551 686 l 443 460 q 503 439 485 446 q 553 415 521 432 q 601 382 586 399 q 628 338 615 365 q 640 275 640 310 q 569 82 640 161 q 379 -10 497 3 l 374 -87 l 346 -90 q 296 -60 296 -90 q 301 -10 296 -56 q 151 23 217 -6 q 85 97 85 51 q 192 189 85 154 q 317 94 221 111 m 426 346 l 392 85 q 482 132 446 86 q 518 238 518 178 q 426 346 518 311 m 368 489 l 399 701 q 324 661 351 696 q 297 574 297 626 q 368 489 297 524 z "},"":{"ha":672,"x_min":35,"x_max":638,"o":"m 290 -14 q 103 58 171 -14 q 35 256 35 131 q 57 405 35 332 q 120 539 79 478 q 229 637 161 600 q 381 674 297 674 q 569 599 501 674 q 638 394 638 525 q 600 199 638 290 q 481 47 563 108 q 290 -14 400 -14 m 311 122 q 463 192 404 122 q 521 354 521 261 q 481 483 521 428 q 363 538 442 538 q 210 464 269 538 q 151 299 151 390 q 192 174 151 226 q 311 122 233 122 z "},"":{"ha":449,"x_min":0,"x_max":393,"o":"m 286 94 q 390 100 338 94 q 393 75 393 86 q 378 19 393 42 q 332 -3 363 -3 q 261 -1 324 -3 q 139 0 199 0 q 4 -1 47 0 q 0 29 0 11 q 82 99 0 99 l 146 99 q 210 564 200 486 q 82 544 115 551 q 76 583 76 558 q 150 650 76 635 q 300 672 258 672 q 341 663 321 672 q 361 632 361 653 q 353 576 361 619 q 330 449 344 533 q 303 276 315 365 q 286 94 286 150 z "},"":{"ha":626,"x_min":-14,"x_max":571,"o":"m 565 517 q 464 306 565 415 q 174 106 363 196 q 292 109 204 107 q 442 117 379 111 q 563 135 504 122 q 571 83 571 115 q 465 1 571 6 q 236 -3 356 -3 q 39 0 147 -3 q -14 60 -14 0 q -10 100 -14 79 q 92 163 19 119 q 210 237 164 206 q 310 311 257 268 q 391 399 364 354 q 418 489 418 443 q 328 572 418 572 q 246 540 290 572 q 171 460 201 508 q 100 517 100 471 q 186 619 100 567 q 365 672 272 672 q 510 629 456 672 q 565 517 565 586 z "},"":{"ha":542,"x_min":-49,"x_max":507,"o":"m 335 286 q 438 217 403 267 q 474 100 474 167 q 363 -129 474 -36 q 82 -222 251 -222 q -16 -203 17 -222 q -49 -157 -49 -185 q -29 -108 -49 -129 q 18 -79 -10 -86 q 118 -121 53 -121 q 272 -65 213 -121 q 331 74 331 -10 q 283 179 331 142 q 147 217 235 217 q 108 264 108 217 q 114 301 108 282 q 304 353 239 304 q 369 472 369 401 q 346 545 369 517 q 281 574 322 574 q 200 544 240 574 q 132 461 160 515 q 70 478 92 461 q 49 522 49 496 q 131 622 49 572 q 304 672 213 672 q 453 624 400 672 q 507 503 507 575 q 463 376 507 435 q 335 286 418 318 z "},"":{"ha":686,"x_min":0,"x_max":658,"o":"m 386 163 l 428 497 q 135 160 271 338 q 226 158 164 158 q 386 163 311 158 m 443 654 q 532 672 472 672 q 596 668 575 672 q 517 167 538 336 q 651 190 619 175 q 658 138 658 160 q 651 100 658 115 q 637 77 644 85 q 610 65 629 69 q 581 59 592 60 q 543 58 569 58 q 504 57 517 57 q 486 -133 486 -56 q 492 -211 486 -178 q 408 -222 463 -222 q 354 -210 369 -222 q 339 -172 339 -199 q 371 56 339 -146 q 24 65 96 56 q 0 110 0 69 q 10 172 0 143 q 229 436 79 268 q 443 654 379 604 z "},"":{"ha":604,"x_min":-49,"x_max":569,"o":"m 456 542 q 231 549 376 542 l 190 367 q 254 371 217 371 q 455 308 388 371 q 522 142 522 246 q 418 -115 522 -7 q 149 -222 314 -222 q 1 -197 50 -222 q -49 -140 -49 -172 q -26 -90 -49 -111 q 22 -65 -4 -69 q 66 -107 40 -94 q 149 -119 92 -119 q 315 -49 250 -119 q 381 107 381 21 q 327 231 381 181 q 179 281 274 281 q 75 274 124 281 q 67 319 67 288 q 71 352 67 331 q 92 462 75 374 q 129 661 108 550 q 406 658 169 658 q 563 669 503 658 q 569 619 569 650 q 456 542 569 542 z "},"":{"ha":624,"x_min":35,"x_max":606,"o":"m 267 -14 q 90 59 146 -14 q 35 253 35 132 q 72 466 35 356 q 172 669 108 576 q 332 822 236 763 q 535 882 428 882 q 606 839 606 882 q 583 776 606 808 q 542 782 558 782 q 382 732 454 782 q 267 603 310 682 q 200 435 224 524 q 176 264 176 347 q 289 83 176 83 q 402 161 363 83 q 442 329 442 239 q 415 435 442 399 q 342 471 388 471 q 290 461 311 471 q 274 514 274 489 q 390 567 274 567 q 540 509 492 567 q 588 360 588 451 q 498 104 588 222 q 267 -14 408 -14 z "},"":{"ha":611,"x_min":-35,"x_max":611,"o":"m -35 -147 q 229 167 97 -32 q 450 546 361 365 q 101 540 281 540 q 13 603 13 540 q 31 669 13 636 q 183 658 97 658 q 607 661 538 658 q 611 624 611 642 q 596 557 611 586 q 189 -126 544 433 q 75 -222 128 -222 q -35 -147 7 -222 z "},"":{"ha":665,"x_min":21,"x_max":644,"o":"m 260 665 q 376 532 260 582 q 504 692 504 592 q 472 753 504 729 q 393 778 440 778 q 299 746 338 778 q 260 665 260 714 m 468 254 q 433 338 468 304 q 322 404 397 372 q 163 211 163 338 q 198 124 163 160 q 296 89 233 89 q 421 139 374 89 q 468 254 468 189 m 21 193 q 75 368 21 296 q 222 476 129 440 q 121 653 121 539 q 204 817 121 753 q 408 881 288 881 q 583 831 522 881 q 644 707 644 781 q 600 584 644 644 q 476 486 556 524 q 613 274 613 413 q 525 72 613 157 q 281 -14 438 -14 q 88 46 154 -14 q 21 193 21 106 z "},"":{"ha":624,"x_min":18,"x_max":589,"o":"m 357 672 q 533 599 478 672 q 589 406 589 526 q 552 192 589 303 q 451 -11 515 82 q 292 -164 388 -104 q 89 -224 196 -224 q 18 -181 18 -224 q 40 -118 18 -150 q 82 -124 65 -124 q 242 -74 169 -124 q 357 56 314 -24 q 424 223 400 135 q 447 394 447 311 q 335 575 447 575 q 222 497 261 575 q 182 329 182 419 q 209 224 182 260 q 282 188 236 188 q 333 197 313 188 q 350 144 350 169 q 233 92 350 92 q 84 149 132 92 q 36 299 36 207 q 126 554 36 436 q 357 672 215 672 z "},"":{"ha":797,"x_min":88,"x_max":699,"o":"m 251 278 q 338 101 251 146 q 363 281 343 136 q 400 546 383 426 q 293 444 335 518 q 251 278 251 371 m 426 785 q 460 789 450 789 q 506 758 506 789 q 493 660 506 757 q 644 625 590 660 q 699 543 699 590 q 669 483 699 510 q 585 446 640 457 q 478 558 539 550 l 411 86 q 476 119 440 88 q 544 204 511 150 q 613 170 589 194 q 638 115 638 146 q 576 26 638 65 q 397 -14 515 -12 q 389 -131 389 -68 l 360 -133 q 310 -103 310 -133 q 322 -8 310 -100 q 151 77 215 7 q 88 258 88 147 q 183 524 88 419 q 415 653 279 629 q 426 785 422 711 z "},"":{"ha":1133,"x_min":111,"x_max":1022,"o":"m 990 225 q 1006 163 1001 183 q 1022 8 1022 86 q 1013 -1 1022 -1 l 976 -1 q 968 7 968 -1 q 978 17 968 17 l 1004 17 q 979 190 1004 82 l 972 221 q 942 271 967 249 q 876 297 917 293 q 740 328 817 303 q 719 338 721 335 q 716 374 718 346 q 713 411 714 401 q 639 429 675 411 q 635 439 635 431 q 644 447 635 447 q 669 438 646 447 q 725 429 692 429 q 763 439 753 429 q 780 522 768 446 q 801 618 792 597 q 807 708 807 636 q 801 800 807 772 q 621 935 776 935 q 439 876 504 935 q 374 711 374 817 q 405 559 374 621 q 490 483 436 497 q 499 472 499 481 q 494 399 499 464 q 489 332 490 335 q 483 329 486 329 q 363 297 447 329 q 258 264 289 268 q 164 189 181 253 l 154 149 q 131 17 135 65 l 328 17 q 338 8 338 17 q 328 -1 338 -1 l 121 -1 q 111 8 111 -1 q 136 150 115 67 l 147 192 q 183 252 153 225 q 257 285 213 279 q 369 319 288 289 q 474 347 442 346 q 481 467 479 425 q 388 551 421 486 q 356 711 356 615 q 425 891 356 826 q 621 956 494 956 q 822 804 789 956 q 826 732 826 779 q 819 611 826 649 q 794 497 801 567 q 772 425 788 443 q 731 410 761 413 q 734 374 732 397 q 736 347 736 351 q 881 315 821 322 q 953 284 924 311 q 990 225 982 257 m 704 782 l 711 775 l 686 736 l 668 751 l 704 782 m 715 775 l 722 782 l 758 751 l 740 736 l 715 775 m 718 797 l 708 797 l 701 840 l 725 840 l 718 797 m 707 794 l 703 785 l 660 794 l 668 815 l 707 794 m 722 785 l 719 794 l 758 815 l 767 794 l 722 785 z "},"ﬀ":{"ha":943,"x_min":-6,"x_max":1082,"o":"m 603 557 l 288 558 q 235 79 254 214 q 220 -7 228 29 q 197 -88 213 -43 q 153 -158 181 -133 q 88 -182 125 -182 q -6 -94 24 -182 q 138 557 100 -64 q 51 550 96 556 q 49 582 49 575 q 129 657 49 657 l 147 657 q 446 992 179 992 q 565 969 514 992 q 617 894 617 946 q 591 832 617 861 q 503 801 565 803 q 410 892 478 892 q 331 824 360 892 q 296 657 303 756 l 613 657 q 911 992 644 992 q 1031 969 979 992 q 1082 894 1082 946 q 1056 832 1082 861 q 968 801 1031 803 q 875 892 943 892 q 797 823 825 892 q 761 656 768 754 q 950 663 863 656 q 954 628 954 644 q 888 561 954 564 q 753 558 856 558 q 700 79 719 214 q 685 -7 693 29 q 662 -88 678 -43 q 618 -158 646 -133 q 553 -182 590 -182 q 460 -94 489 -182 q 603 557 565 -64 z "},"ﬁ":{"ha":747,"x_min":-6,"x_max":719,"o":"m 582 801 q 454 892 549 892 q 346 824 385 892 q 296 656 307 756 q 582 660 481 656 q 633 672 606 672 q 694 650 669 672 q 719 585 719 628 q 689 349 719 532 q 658 150 658 167 q 710 72 658 94 q 678 11 704 36 q 613 -14 653 -14 q 537 24 561 -14 q 513 113 513 61 q 538 319 513 176 q 563 508 563 461 q 547 561 563 539 q 288 558 513 558 q 235 79 254 214 q 220 -7 228 29 q 197 -88 213 -43 q 153 -158 181 -133 q 88 -182 125 -182 q -6 -94 24 -182 q 138 557 100 -64 q 51 550 96 556 q 49 582 49 575 q 129 657 49 657 l 147 657 q 185 817 153 749 q 270 922 218 885 q 378 975 322 958 q 496 992 433 992 q 576 989 543 992 q 646 976 610 986 q 701 943 682 965 q 719 886 719 921 q 687 826 719 850 q 582 801 654 801 z "},"ﬂ":{"ha":813,"x_min":-6,"x_max":797,"o":"m 296 656 q 485 663 397 656 q 489 628 489 644 q 422 561 489 564 q 288 558 390 558 q 235 79 254 214 q 220 -7 228 29 q 197 -88 213 -43 q 153 -158 181 -133 q 88 -182 125 -182 q -6 -94 24 -182 q 138 557 100 -64 q 51 550 96 556 q 49 582 49 575 q 129 657 49 657 l 147 657 q 258 895 165 799 q 497 992 351 992 q 611 971 561 992 q 650 1015 624 997 q 711 1032 676 1032 q 776 1006 756 1032 q 797 943 797 981 q 738 546 797 892 q 674 151 678 200 q 725 72 674 93 q 626 -14 708 -14 q 552 24 576 -14 q 528 113 528 61 q 579 473 528 176 q 638 833 631 769 q 479 890 583 890 q 351 822 396 890 q 296 656 307 753 z "},"ﬃ":{"ha":1213,"x_min":-6,"x_max":1185,"o":"m 603 557 l 288 558 q 235 79 254 214 q 220 -7 228 29 q 197 -88 213 -43 q 153 -158 181 -133 q 88 -182 125 -182 q -6 -94 24 -182 q 138 557 100 -64 q 51 550 96 556 q 49 582 49 575 q 129 657 49 657 l 147 657 q 446 992 179 992 q 565 969 514 992 q 617 894 617 946 q 591 832 617 861 q 503 801 565 803 q 410 892 478 892 q 331 824 360 892 q 296 657 303 756 l 613 657 q 651 817 618 749 q 735 922 683 885 q 843 975 788 958 q 961 992 899 992 q 1042 989 1008 992 q 1111 976 1075 986 q 1166 943 1147 965 q 1185 886 1185 921 q 1152 826 1185 850 q 1047 801 1119 801 q 919 892 1014 892 q 811 824 850 892 q 761 656 772 756 q 1047 660 947 656 q 1099 672 1069 672 q 1160 650 1135 672 q 1185 585 1185 628 q 1154 349 1185 532 q 1124 150 1124 167 q 1175 72 1124 94 q 1144 11 1169 36 q 1078 -14 1118 -14 q 1002 24 1026 -14 q 978 113 978 61 q 1003 319 978 176 q 1028 508 1028 461 q 1011 561 1028 540 q 753 558 975 558 q 700 79 719 214 q 685 -7 693 29 q 662 -88 678 -43 q 618 -158 646 -133 q 553 -182 590 -182 q 460 -94 489 -182 q 603 557 565 -64 z "},"ﬄ":{"ha":1267,"x_min":-6,"x_max":1263,"o":"m 603 557 l 288 558 q 235 79 254 214 q 220 -7 228 29 q 197 -88 213 -43 q 153 -158 181 -133 q 88 -182 125 -182 q -6 -94 24 -182 q 138 557 100 -64 q 51 550 96 556 q 49 582 49 575 q 129 657 49 657 l 147 657 q 446 992 179 992 q 565 969 514 992 q 617 894 617 946 q 591 832 617 861 q 503 801 565 803 q 410 892 478 892 q 331 824 360 892 q 296 657 303 756 l 613 657 q 724 895 631 799 q 963 992 817 992 q 1076 971 1026 992 q 1115 1015 1089 997 q 1176 1032 1142 1032 q 1242 1006 1221 1032 q 1263 943 1263 981 q 1203 546 1263 892 q 1139 151 1143 200 q 1190 72 1139 93 q 1092 -14 1174 -14 q 1017 24 1042 -14 q 993 113 993 61 q 1044 473 993 176 q 1103 833 1096 769 q 944 890 1049 890 q 817 822 861 890 q 761 656 772 753 q 950 663 863 656 q 954 628 954 644 q 888 561 954 564 q 753 558 856 558 q 700 79 719 214 q 685 -7 693 29 q 662 -88 678 -43 q 618 -158 646 -133 q 553 -182 590 -182 q 460 -94 489 -182 q 603 557 565 -64 z "},"ﬆ":{"ha":1018,"x_min":7,"x_max":1057,"o":"m 658 657 l 692 657 q 706 779 694 679 q 642 814 683 814 q 538 765 589 814 q 486 646 486 715 q 494 597 486 622 q 501 561 501 571 q 399 479 501 490 q 359 551 385 528 q 303 575 333 575 q 233 544 265 575 q 201 472 201 514 q 230 414 201 435 q 299 382 258 393 q 379 356 339 371 q 448 301 419 340 q 476 200 476 263 q 401 40 476 94 q 204 -14 325 -14 q 65 17 122 -14 q 7 99 7 47 q 90 186 7 169 q 138 113 103 139 q 214 86 172 86 q 308 112 272 86 q 343 172 343 138 q 315 229 343 208 q 246 263 286 250 q 165 292 206 275 q 95 347 124 308 q 67 447 67 386 q 143 617 67 560 q 329 674 219 674 q 431 651 382 674 q 428 688 428 676 q 502 835 428 776 q 667 894 576 894 q 801 856 740 894 q 861 765 861 817 q 844 656 861 764 q 1053 663 963 656 q 1057 629 1057 646 q 993 560 1057 564 q 829 558 950 558 q 779 185 779 236 q 800 103 779 124 q 865 82 821 82 q 949 124 908 82 q 985 60 985 99 q 822 -14 985 -14 q 688 29 742 -14 q 633 174 633 72 q 641 265 633 204 q 663 419 649 326 q 682 558 676 513 q 581 550 672 558 q 578 579 578 569 q 658 657 578 657 z "}}}
